<svg version="1.1" id="Layer_1" xmlns="http://www.w3.org/2000/svg" xmlns:xlink="http://www.w3.org/1999/xlink" x="0px" y="0px"
	 width="100%" viewBox="0 0 2000 1500" enable-background="new 0 0 2000 1500" xml:space="preserve">
<path fill="#FFFFFF" opacity="1.000000" stroke="none" 
	d="
M1411.000000,1501.000000 
	C940.666809,1501.000000 470.833618,1501.000000 1.000315,1501.000000 
	C1.000210,1001.000305 1.000210,501.000580 1.000105,1.000651 
	C667.666199,1.000434 1334.332397,1.000434 2000.998901,1.000217 
	C2000.999268,500.999359 2000.999268,1000.998718 2000.999634,1500.999023 
	C1804.500000,1501.000000 1608.000000,1501.000000 1411.000000,1501.000000 
M1057.585938,1201.598389 
	C1062.555298,1200.660278 1067.493286,1199.229858 1072.501953,1198.911255 
	C1078.479980,1198.531250 1082.158081,1201.665039 1082.967041,1207.361694 
	C1083.865601,1213.689697 1084.507935,1220.082764 1084.755859,1226.467163 
	C1085.056274,1234.208740 1084.826904,1241.970825 1084.826904,1249.665283 
	C1088.058594,1249.665283 1090.637085,1249.665283 1092.985962,1249.665283 
	C1092.985962,1236.037842 1093.831787,1222.660889 1092.755249,1209.440430 
	C1091.610474,1195.382812 1087.736938,1192.102051 1077.458252,1191.306641 
	C1071.133057,1190.817139 1064.596191,1193.058960 1057.504761,1193.996704 
	C1057.068848,1193.991455 1056.633057,1193.986084 1056.068848,1193.053711 
	C1056.068848,1184.461304 1056.068848,1175.868896 1056.068848,1167.205566 
	C1052.933105,1167.205566 1050.346191,1167.205566 1047.515747,1167.205566 
	C1047.515747,1194.779907 1047.515747,1222.133301 1047.515747,1249.653809 
	C1050.444580,1249.653809 1053.136963,1249.653809 1056.213501,1249.653809 
	C1056.213501,1233.880005 1056.213501,1218.434937 1056.565918,1202.774292 
	C1056.780518,1202.587280 1056.924316,1202.356201 1057.585938,1201.598389 
M978.952332,955.493286 
	C978.688354,954.997131 978.424377,954.501038 978.082764,953.070251 
	C978.082764,945.482178 978.082764,937.894165 978.082764,929.767151 
	C972.255371,930.238037 967.172180,930.893372 962.079285,930.979797 
	C958.282532,931.044189 956.763245,932.197815 956.919556,936.242615 
	C957.401062,948.707764 957.772705,961.186707 957.747986,973.659424 
	C957.715454,990.088013 957.225586,1006.515198 957.013062,1022.944092 
	C956.911987,1030.763916 957.142700,1038.589844 956.944885,1046.406006 
	C956.826050,1051.099487 956.170898,1055.779297 955.748718,1060.556641 
	C964.031921,1060.556641 971.396423,1060.556641 979.005859,1060.556641 
	C979.005859,1058.138794 979.034790,1056.148804 979.001343,1054.159912 
	C978.666199,1034.212402 978.629333,1014.252686 977.830322,994.323669 
	C977.499573,986.074402 979.630310,978.978210 983.902954,972.253052 
	C989.555298,963.356323 995.334229,954.358948 1006.855835,952.573792 
	C1010.956055,951.938416 1015.314087,953.159668 1019.544312,953.067505 
	C1021.040161,953.035034 1023.743591,951.681213 1023.788940,950.819702 
	C1024.143555,944.084229 1023.985229,937.321716 1023.985229,930.328796 
	C1008.329895,928.765137 995.959595,933.094727 986.882324,945.495361 
	C984.279602,949.051086 981.605957,952.554932 978.952332,955.493286 
M1219.500122,494.666199 
	C1084.688843,494.666229 949.877625,494.654114 815.066467,494.761688 
	C812.613770,494.763641 809.294006,495.461823 807.897644,497.116730 
	C805.293701,500.202850 805.374634,504.355927 808.213623,507.553558 
	C810.876953,510.553436 814.061279,513.094177 817.044983,515.805481 
	C821.300903,519.672974 826.293701,522.968811 829.725220,527.461060 
	C841.645508,543.066406 852.292847,559.697083 864.864136,574.734070 
	C873.778870,585.397278 884.709290,594.473389 895.286865,603.625916 
	C911.905884,618.005981 931.182190,627.915405 951.808716,635.283813 
	C968.413940,641.215759 985.786621,642.934082 1003.144348,644.939148 
	C1011.878235,645.947937 1021.029297,649.704895 1022.679260,659.542847 
	C1023.280762,663.129211 1021.328979,667.071167 1021.285706,670.859436 
	C1021.245239,674.403076 1019.316101,675.437134 1016.554016,676.079346 
	C1011.959595,677.147583 1007.523987,678.889160 1006.312439,683.852234 
	C1005.424927,687.487793 1005.314575,691.537354 1005.900879,695.237122 
	C1006.367554,698.182495 1006.008850,699.858093 1003.326477,700.993042 
	C997.706421,703.371094 992.085388,705.747192 986.480347,708.160278 
	C972.588867,714.140686 958.688782,720.101501 944.827942,726.152039 
	C938.814026,728.777222 932.887817,731.603455 926.921753,734.338379 
	C927.009216,734.554504 927.096619,734.770630 927.184082,734.986755 
	C1001.333923,734.162048 1075.483765,733.337402 1149.633667,732.512695 
	C1149.722168,732.185913 1149.810791,731.859192 1149.899292,731.532410 
	C1123.364380,720.905334 1096.829346,710.278259 1070.002319,699.534180 
	C1074.655762,696.633423 1076.349976,692.521423 1075.411865,687.542603 
	C1074.314209,681.716370 1070.911865,677.276184 1065.048218,676.151062 
	C1059.958984,675.174500 1058.305542,672.362671 1057.963745,667.842468 
	C1057.890747,666.876526 1057.473389,665.940430 1057.258301,664.980774 
	C1054.791870,653.981140 1061.190063,644.934998 1072.212402,643.760681 
	C1077.447266,643.202942 1082.675171,642.578186 1087.900391,641.935303 
	C1111.089966,639.081970 1133.091187,631.945740 1153.760864,621.438904 
	C1173.558960,611.375122 1191.317261,598.052368 1206.936035,582.140259 
	C1222.994751,565.779846 1236.779419,547.622131 1248.402466,527.865173 
	C1251.031250,523.396545 1253.987305,519.818481 1258.662720,517.064453 
	C1262.532959,514.784729 1266.129272,510.932007 1268.183960,506.923706 
	C1271.757446,499.952240 1268.020142,494.666748 1260.493530,494.666412 
	C1247.162476,494.665833 1233.831299,494.666168 1219.500122,494.666199 
M1024.459595,278.044586 
	C1011.709778,281.431610 999.958740,287.018646 990.019592,295.650330 
	C974.937561,308.748413 966.757996,325.670837 964.217102,345.425903 
	C963.683350,349.575592 963.725464,354.244751 961.767151,357.687622 
	C953.906738,371.506500 945.313110,384.906647 937.112061,398.534698 
	C935.173645,401.755768 934.069336,402.123077 931.728210,398.678253 
	C910.127197,366.893707 886.898010,336.406494 860.783997,308.111420 
	C842.698792,288.515747 823.504456,270.167969 803.059814,253.106033 
	C801.626221,251.909531 798.852051,251.504990 796.916748,251.871124 
	C790.120544,253.156860 783.327209,254.633102 776.700745,256.602203 
	C764.577942,260.204590 752.399658,263.747498 740.587219,268.220093 
	C733.444458,270.924561 729.289429,277.542053 731.183044,281.843811 
	C733.562256,287.248444 735.674988,292.639893 742.841492,294.889008 
	C764.657593,301.735687 785.458008,311.029999 805.359741,322.482452 
	C822.314270,332.238953 838.407837,343.262054 852.768188,356.305664 
	C868.098267,370.230042 882.688904,385.131592 894.767395,402.169952 
	C898.746826,407.783508 902.578491,413.501770 906.850464,419.714203 
	C894.813660,422.745667 889.388184,431.121490 885.062744,440.725739 
	C884.320679,442.373444 882.517761,443.880341 880.838135,444.706696 
	C875.421143,447.371704 869.624390,449.310577 864.353577,452.217529 
	C853.105042,458.421387 843.619080,466.513733 838.243713,479.335236 
	C854.476929,478.542694 870.201965,477.605225 885.940491,477.054352 
	C901.700684,476.502716 917.475037,476.364716 933.241943,475.994995 
	C950.175476,475.597931 967.108826,475.184998 984.039673,474.690552 
	C990.681519,474.496582 997.325073,474.171906 1003.947327,473.647797 
	C1005.311462,473.539825 1007.371277,472.577820 1007.777649,471.504700 
	C1011.798706,460.887299 1020.138489,454.418396 1029.469482,449.217316 
	C1044.330078,440.934113 1060.466187,437.631561 1077.419067,439.071503 
	C1084.797241,439.698151 1090.630615,436.789886 1095.965820,432.359222 
	C1099.923218,429.072784 1103.568604,425.413147 1107.475098,422.062042 
	C1114.836670,415.746887 1122.106689,409.408142 1131.897949,406.749634 
	C1135.775879,405.696716 1135.970703,407.250763 1136.382324,410.076965 
	C1137.921631,420.643677 1142.108765,430.212189 1148.482178,438.667236 
	C1154.755493,446.989594 1164.243408,445.390350 1168.741943,438.268494 
	C1174.367676,429.362122 1179.076904,420.014618 1177.981567,408.954163 
	C1177.429443,403.378448 1176.876343,397.787720 1175.944092,392.267853 
	C1174.067505,381.156769 1170.671753,370.530457 1164.275146,361.123474 
	C1158.382202,352.457001 1149.880493,347.358490 1140.044067,344.647034 
	C1139.850586,316.521515 1130.227417,299.970215 1110.236694,293.397308 
	C1100.577637,290.221436 1090.760010,290.078339 1081.011108,293.081177 
	C1067.409668,297.270691 1058.322021,306.625732 1052.186279,319.617065 
	C1045.908813,312.864166 1041.379028,305.711304 1042.227905,297.109009 
	C1043.030884,288.971405 1045.709106,281.018799 1047.692749,272.420807 
	C1040.553345,274.183899 1032.915771,276.070068 1024.459595,278.044586 
M768.500000,785.918457 
	C733.004944,785.918457 697.509949,785.917419 662.014893,785.918701 
	C619.853882,785.920227 577.692810,785.975159 535.532104,785.855713 
	C530.700439,785.841980 527.378418,787.769348 525.725708,791.951233 
	C523.978943,796.371338 524.997131,800.893860 529.136719,803.299866 
	C531.738647,804.812195 535.372864,805.014526 538.544128,805.015259 
	C846.169495,805.086304 1153.794800,805.081482 1461.420166,805.081299 
	C1471.052490,805.081299 1475.442749,802.210083 1475.697144,795.749146 
	C1475.956787,789.161194 1471.247559,785.918945 1461.406982,785.918884 
	C1230.771362,785.918335 1000.135681,785.918396 768.500000,785.918457 
M719.500000,850.000000 
	C966.796448,850.000000 1214.092896,850.000122 1461.389282,849.999390 
	C1463.055664,849.999390 1464.731201,850.099243 1466.386597,849.961243 
	C1471.511475,849.534180 1475.683716,844.944214 1475.582397,839.953491 
	C1475.478638,834.838318 1471.689819,831.128906 1466.228271,830.848999 
	C1464.732056,830.772278 1463.229370,830.819092 1461.729614,830.819092 
	C1154.275635,830.818237 846.821533,830.818176 539.367493,830.822449 
	C537.368652,830.822449 535.363159,830.791443 533.372314,830.935547 
	C528.149292,831.313538 525.501892,834.176147 525.199463,839.635498 
	C524.903503,844.979309 527.711182,848.999878 532.541260,849.799316 
	C534.494080,850.122559 536.529236,849.993103 538.526917,849.993408 
	C598.517944,850.001465 658.508972,850.000000 719.500000,850.000000 
M1050.000977,1014.280151 
	C1049.446533,1029.735474 1048.892212,1045.190918 1048.337280,1060.660889 
	C1056.046875,1060.660889 1063.295166,1060.660889 1071.004517,1060.660889 
	C1071.004517,1058.542480 1071.021240,1056.746216 1071.002197,1054.950195 
	C1070.708374,1027.300049 1070.385132,999.650146 1070.167114,971.999390 
	C1070.152222,970.110291 1070.264404,967.499817 1071.426270,966.436768 
	C1080.143677,958.461426 1089.268799,950.671326 1101.261719,948.473694 
	C1109.741577,946.919800 1118.628662,946.509155 1125.355591,953.865417 
	C1129.849976,958.780212 1131.129272,964.946716 1131.067139,971.310120 
	C1130.911499,987.252502 1130.564819,1003.194275 1130.146973,1019.132385 
	C1129.925537,1027.581787 1129.306763,1036.020264 1129.038452,1044.468994 
	C1128.866333,1049.884155 1129.006104,1055.309082 1129.006104,1060.573975 
	C1137.404541,1060.573975 1144.971558,1060.573975 1153.112305,1060.573975 
	C1152.719727,1055.518188 1152.072266,1050.918579 1152.053711,1046.316284 
	C1151.952148,1021.152649 1151.966431,995.988098 1152.086914,970.824524 
	C1152.095459,969.037354 1152.788818,966.783569 1153.988892,965.548279 
	C1161.841919,957.464294 1170.725586,950.624329 1182.044800,948.540710 
	C1190.733032,946.941406 1199.739868,946.463562 1206.539795,954.043640 
	C1210.976685,958.989563 1212.167847,965.191101 1212.103516,971.548889 
	C1211.823975,999.200256 1211.381470,1026.849976 1211.004883,1054.500366 
	C1210.976562,1056.577271 1211.001099,1058.654907 1211.001099,1060.575928 
	C1219.095825,1060.575928 1226.333496,1060.575928 1234.111084,1060.575928 
	C1233.724365,1054.195679 1233.079834,1048.259766 1233.053711,1042.321045 
	C1232.939453,1016.324158 1233.069214,990.325989 1232.931885,964.329285 
	C1232.911987,960.571533 1232.337280,956.700989 1231.311401,953.083313 
	C1225.230347,931.636414 1198.999390,924.427673 1181.961060,930.944702 
	C1170.483398,935.334961 1160.147217,942.709412 1148.955566,948.940796 
	C1149.106079,949.158447 1148.487549,948.407104 1148.022827,947.570496 
	C1140.476807,933.990173 1128.093750,929.640442 1113.485107,928.921570 
	C1101.425903,928.328186 1091.893188,934.124390 1082.397705,940.176147 
	C1078.654907,942.561646 1075.233154,945.450989 1070.539551,948.950012 
	C1070.539551,941.712097 1070.539551,935.984436 1070.539551,929.758057 
	C1064.746460,930.224854 1059.638306,930.965454 1054.532715,930.948242 
	C1050.114868,930.933350 1048.906250,932.555664 1048.989136,936.869812 
	C1049.478760,962.350281 1049.700928,987.835938 1050.000977,1014.280151 
M553.759338,1022.740173 
	C556.199646,1019.562500 558.120361,1015.789307 563.336670,1016.834778 
	C573.277222,1018.827087 583.294617,1018.755981 593.229004,1016.845764 
	C618.718323,1011.944763 633.924561,989.688721 629.047607,964.266602 
	C628.007629,958.845154 626.037781,953.602112 624.288940,947.560425 
	C628.349792,946.683960 632.527588,945.936340 636.622864,944.871460 
	C653.600525,940.456787 649.402039,944.892578 650.011841,928.429688 
	C650.148315,924.745361 648.801086,923.889343 645.127258,924.857666 
	C634.403259,927.684082 623.589294,930.177124 612.777588,932.656860 
	C610.439453,933.193054 607.632263,933.981812 605.604797,933.197388 
	C593.453491,928.496338 581.098938,928.354309 568.366455,929.894836 
	C530.988403,934.417297 521.482971,974.923157 536.879272,999.369446 
	C539.761475,1003.945801 543.927612,1007.713562 547.483093,1011.833496 
	C543.738953,1015.306152 539.631104,1018.499451 536.335205,1022.381897 
	C533.995117,1025.138550 531.243774,1028.868042 531.335327,1032.087646 
	C531.517334,1038.488647 534.645874,1044.137085 540.822449,1047.321777 
	C544.516479,1049.226440 548.254883,1051.044800 551.876282,1052.853516 
	C545.933350,1058.029663 539.759827,1062.548096 534.702332,1068.085815 
	C530.732300,1072.432861 526.283325,1076.644287 527.836243,1084.377686 
	C530.535278,1097.819336 538.044739,1106.781006 550.236267,1111.630005 
	C568.993896,1119.090576 588.034363,1117.516357 606.488647,1110.519287 
	C618.845886,1105.833862 629.504395,1098.230469 634.677795,1085.358643 
	C639.785889,1072.649536 638.450684,1058.012085 623.893066,1051.258057 
	C614.738098,1047.010620 604.653198,1044.535767 594.772766,1042.145020 
	C583.559937,1039.431763 572.022766,1038.067261 560.793091,1035.412476 
	C553.313965,1033.644165 552.293945,1031.222534 553.759338,1022.740173 
M1356.395264,937.030823 
	C1345.903687,929.528809 1333.989502,927.554382 1321.442871,928.029358 
	C1298.144531,928.911438 1281.576660,940.250671 1272.657715,961.466614 
	C1263.565796,983.093689 1263.226929,1005.525024 1271.334473,1027.595825 
	C1277.133301,1043.381592 1287.795776,1054.895020 1304.351440,1060.054321 
	C1313.845093,1063.012817 1323.514526,1065.218140 1333.430786,1062.881470 
	C1343.345581,1060.545166 1353.158325,1057.741089 1362.918457,1054.817383 
	C1364.472290,1054.351929 1366.229858,1052.368530 1366.655029,1050.759521 
	C1367.789429,1046.467773 1368.353394,1042.010742 1368.915283,1037.590454 
	C1369.088379,1036.228271 1368.523315,1034.772217 1368.296387,1033.359131 
	C1366.738525,1033.637939 1364.877930,1033.462891 1363.671143,1034.267944 
	C1354.791016,1040.191772 1344.927612,1043.507202 1334.483521,1044.697510 
	C1319.609863,1046.392578 1304.542603,1042.316406 1295.124146,1027.764771 
	C1288.731079,1017.887390 1287.989868,1006.727051 1287.229126,994.861633 
	C1289.410767,994.861633 1291.365845,994.858215 1293.320801,994.862122 
	C1316.976318,994.909363 1340.633057,994.842896 1364.286377,995.098511 
	C1369.293945,995.152710 1371.904419,992.974487 1372.496826,988.498779 
	C1373.060913,984.237183 1372.951782,979.876099 1372.990967,975.557373 
	C1373.127075,960.568970 1368.808716,947.434570 1356.395264,937.030823 
M714.131531,1063.129517 
	C718.017395,1063.081787 721.910645,1063.171509 725.787903,1062.963623 
	C748.195618,1061.762817 765.812561,1048.186279 773.063965,1027.864136 
	C779.448059,1009.972534 780.045471,991.553650 776.665833,973.107056 
	C773.888489,957.947876 766.782227,944.930054 753.559265,936.202515 
	C741.485779,928.233643 727.762390,927.020508 713.848755,928.295410 
	C700.891418,929.482727 688.961914,933.854431 679.958557,943.709778 
	C669.454102,955.208374 664.523804,969.456970 663.248718,984.592163 
	C662.379883,994.905457 663.159058,1005.467957 664.250061,1015.808289 
	C665.634216,1028.927734 671.369507,1040.590576 680.689819,1049.797241 
	C689.483398,1058.483521 700.677429,1062.809814 714.131531,1063.129517 
M834.195557,938.705322 
	C834.195557,935.948486 834.195557,933.191650 834.195557,929.880615 
	C827.819946,930.303589 821.574402,930.884583 815.317261,931.068604 
	C811.744080,931.173767 810.723877,932.736267 810.958252,936.045105 
	C811.425903,942.647034 811.943604,949.261841 811.987915,955.874390 
	C812.145203,979.358582 812.025818,1002.844666 812.174561,1026.328979 
	C812.334473,1051.567871 829.059082,1061.936279 850.035095,1062.734985 
	C862.395813,1063.205811 872.366516,1056.183350 882.064880,1049.374512 
	C885.116760,1047.231934 888.033508,1044.896851 890.343994,1043.153931 
	C893.744568,1048.427368 896.057678,1053.940063 900.019165,1057.729980 
	C906.860229,1064.274780 915.110840,1063.591553 923.400513,1059.747437 
	C926.782593,1058.178955 928.933350,1056.389648 929.697937,1052.416626 
	C931.676514,1042.135864 931.573181,1041.846313 921.475037,1043.794800 
	C914.910522,1045.061401 910.967712,1041.948120 910.854553,1035.138916 
	C910.741089,1028.310425 910.819214,1021.476868 910.913574,1014.646912 
	C911.182678,995.166138 911.542053,975.686523 911.784668,956.205444 
	C911.891846,947.605530 911.802795,939.003174 911.802795,929.815002 
	C906.318420,930.242615 901.394165,930.997681 896.486084,930.904419 
	C891.615356,930.811890 889.905579,932.246216 889.956726,937.440979 
	C890.224304,964.596436 889.867004,991.758972 890.258667,1018.911377 
	C890.339233,1024.498413 888.346802,1028.296387 884.356567,1031.134033 
	C879.435608,1034.633545 874.384705,1038.602417 868.765198,1040.298340 
	C862.124084,1042.302734 854.692627,1043.270508 847.827698,1042.550903 
	C839.216370,1041.648315 832.995544,1032.109253 833.053101,1022.036133 
	C833.132935,1008.070435 833.617310,994.107544 833.818787,980.141907 
	C834.013367,966.647827 834.068848,953.151855 834.195557,938.705322 
M1066.500000,478.887482 
	C1123.931274,478.887482 1181.362427,478.887482 1238.722534,478.887482 
	C1238.812134,478.220184 1238.911621,478.009888 1238.845093,477.900879 
	C1226.804810,458.189545 1208.458618,446.859009 1187.289673,439.408264 
	C1186.626099,439.174683 1184.414429,441.052826 1184.194946,442.191345 
	C1181.559814,455.862396 1165.807495,462.406494 1154.925903,461.449677 
	C1140.999512,460.225128 1131.255737,453.491608 1126.140015,441.040100 
	C1119.011841,444.917755 1112.228516,449.381134 1104.860718,452.433533 
	C1093.966553,456.946930 1082.603760,459.047699 1070.530273,457.377411 
	C1064.811646,456.586304 1058.547241,457.256775 1052.927856,458.756104 
	C1041.720093,461.746490 1034.861572,470.986542 1026.499878,478.887482 
	C1039.870728,478.887482 1052.685303,478.887482 1066.500000,478.887482 
M1394.136597,932.597473 
	C1393.706055,936.897217 1393.275391,941.196960 1392.780518,946.139282 
	C1399.917603,946.139282 1405.821777,946.139282 1412.007690,946.139282 
	C1412.007690,968.663086 1411.994629,990.626343 1412.014893,1012.589539 
	C1412.022095,1020.300476 1411.399170,1028.096313 1412.307129,1035.704956 
	C1414.369385,1052.985718 1427.254639,1061.213013 1442.856445,1062.567993 
	C1448.756958,1063.080444 1454.961914,1059.828125 1461.057373,1058.418823 
	C1468.953613,1056.593140 1472.824097,1051.873169 1472.032959,1043.646118 
	C1471.879517,1042.050537 1471.691284,1040.458496 1471.519165,1038.864624 
	C1469.692993,1039.069092 1467.843628,1039.152832 1466.045044,1039.499878 
	C1459.930786,1040.679932 1453.863403,1042.792358 1447.724731,1043.004639 
	C1436.997437,1043.375610 1431.937988,1037.931763 1432.032349,1027.091187 
	C1432.261230,1000.790405 1432.684937,974.491211 1433.050659,948.191772 
	C1433.059326,947.567932 1433.309814,946.947571 1433.498413,946.095764 
	C1435.093750,946.002869 1436.554199,945.847473 1438.014771,945.844116 
	C1447.841064,945.821838 1457.668091,945.772461 1467.493408,945.866699 
	C1470.523438,945.895752 1472.233276,945.103638 1472.076294,941.655457 
	C1471.995361,939.879944 1472.605347,938.071533 1472.915039,936.280029 
	C1473.586060,932.398682 1472.560547,930.524231 1468.023438,930.668396 
	C1458.040771,930.985413 1448.037598,930.619141 1438.049683,930.840210 
	C1434.150269,930.926575 1432.628418,929.762512 1432.946655,925.732056 
	C1433.468872,919.119568 1433.772095,912.478943 1433.852539,905.846375 
	C1433.905029,901.518311 1431.710693,900.343079 1427.750122,902.081299 
	C1423.383301,903.997925 1419.044800,905.993225 1414.602295,907.718201 
	C1411.931030,908.755493 1410.737549,910.218811 1410.922852,913.237000 
	C1411.197876,917.716858 1410.823120,922.234802 1411.049683,926.720154 
	C1411.218140,930.057068 1409.880127,931.068848 1406.695190,931.057739 
	C1402.603149,931.043396 1398.509277,931.504456 1394.136597,932.597473 
M777.349243,1200.643066 
	C779.545410,1200.089111 781.715393,1199.223389 783.942444,1199.035889 
	C792.848022,1198.286377 797.949829,1199.150269 799.098328,1210.533813 
	C799.781616,1217.306519 799.694885,1224.163330 799.811707,1230.984863 
	C799.918823,1237.241211 799.834473,1243.500977 799.834473,1249.651611 
	C803.091431,1249.651611 805.666809,1249.651611 807.768799,1249.651611 
	C807.768799,1233.898926 807.768799,1218.485596 807.768799,1201.619873 
	C812.792786,1200.759399 818.497437,1199.237305 824.263550,1198.950073 
	C829.860107,1198.671265 833.845703,1202.747681 834.273743,1208.126465 
	C834.781494,1214.507568 835.151367,1220.908325 835.299500,1227.307007 
	C835.471985,1234.755859 835.339783,1242.211792 835.339783,1249.749878 
	C838.507629,1249.749878 841.096985,1249.749878 844.591858,1249.749878 
	C844.050598,1234.752197 843.920044,1219.982788 842.840515,1205.283203 
	C842.160400,1196.022339 835.871460,1190.687500 826.508545,1191.159546 
	C820.196472,1191.477783 813.969666,1193.475952 807.702820,1194.713013 
	C806.121277,1195.025391 803.935425,1196.120239 803.038391,1195.466919 
	C793.006531,1188.161743 782.947571,1190.627563 772.795593,1194.934082 
	C772.898865,1194.452637 773.002136,1193.971313 773.105347,1193.489990 
	C770.100220,1192.838013 767.095093,1192.186035 763.615723,1191.431152 
	C763.615723,1211.454346 763.615723,1230.525024 763.615723,1249.770020 
	C766.474365,1249.770020 769.059082,1249.770020 772.085815,1249.770020 
	C772.085815,1235.440796 772.205444,1221.321167 772.002869,1207.206177 
	C771.951294,1203.613159 772.881897,1201.458740 777.349243,1200.643066 
M528.089233,1200.354614 
	C525.289734,1211.696411 527.492737,1222.866455 530.513977,1233.615479 
	C533.605957,1244.616211 541.747742,1250.737549 553.523804,1250.816162 
	C559.981873,1250.859253 566.444946,1250.320923 572.903931,1250.006958 
	C584.915283,1249.423096 584.914734,1249.411621 584.914734,1237.499634 
	C584.914734,1228.073364 584.914734,1218.647217 584.914734,1209.348877 
	C576.862122,1209.348877 569.466919,1209.348877 562.203979,1209.348877 
	C562.203979,1211.997070 562.203979,1214.280640 562.203979,1217.008667 
	C566.814636,1217.008667 571.230286,1217.008667 575.994324,1217.008667 
	C575.994324,1224.578491 576.142334,1231.710693 575.842224,1238.823975 
	C575.794556,1239.952515 573.821533,1241.795288 572.579102,1241.940186 
	C567.157532,1242.572632 561.676819,1242.959351 556.218140,1242.952881 
	C547.243408,1242.942139 541.066284,1238.165283 539.059082,1229.588989 
	C535.998596,1216.513062 535.982361,1203.328247 539.096130,1190.270630 
	C540.354675,1184.992554 543.051025,1179.828125 548.770691,1178.637207 
	C554.790771,1177.383667 561.115479,1177.158691 567.296814,1177.242676 
	C572.894104,1177.318726 578.477600,1178.416748 585.227722,1179.198608 
	C583.546570,1176.003296 587.415039,1171.739136 581.840332,1171.165771 
	C572.142883,1170.168579 562.392456,1169.227539 552.661804,1169.201660 
	C547.677551,1169.188477 542.657227,1170.463135 538.370789,1174.235107 
	C530.610168,1181.064087 528.890808,1189.957031 528.089233,1200.354614 
M1394.503174,1224.618530 
	C1399.331177,1224.618530 1404.160645,1224.697021 1408.986816,1224.602905 
	C1420.474976,1224.379028 1419.029785,1226.750854 1418.969727,1214.121826 
	C1418.909668,1201.506592 1413.019531,1193.339600 1401.272705,1191.474976 
	C1387.690430,1189.318970 1376.682861,1192.486084 1372.941895,1208.359375 
	C1370.809448,1217.408081 1370.928345,1226.120850 1372.820312,1235.310913 
	C1374.625732,1244.080078 1382.711914,1251.731323 1391.881348,1251.024048 
	C1398.296753,1250.529175 1404.734619,1250.320312 1411.163330,1250.002441 
	C1417.554810,1249.686523 1417.920898,1249.164429 1416.428833,1242.983887 
	C1407.866699,1242.983887 1399.362915,1243.524048 1390.995972,1242.690674 
	C1388.068604,1242.399048 1384.593384,1239.243042 1382.967285,1236.460571 
	C1381.116577,1233.293945 1381.054321,1229.081909 1380.056885,1224.618408 
	C1385.269531,1224.618408 1389.386597,1224.618408 1394.503174,1224.618530 
M861.140076,1201.817871 
	C860.468750,1203.276489 859.597412,1204.677368 859.157898,1206.202759 
	C855.910156,1217.474854 856.179871,1228.730225 860.134033,1239.741943 
	C861.704712,1244.115845 867.482056,1250.839600 874.239441,1250.685303 
	C881.823242,1250.512085 889.406311,1250.277832 896.986572,1249.986938 
	C903.563660,1249.734741 903.797607,1249.362305 902.466919,1243.090210 
	C894.440369,1243.090210 886.497009,1243.269897 878.566162,1243.031616 
	C872.530640,1242.850342 867.804199,1238.182495 867.041992,1232.178589 
	C866.740356,1229.802612 866.657959,1227.398804 866.446045,1224.618530 
	C876.174133,1224.618530 885.635132,1224.618530 895.096130,1224.618530 
	C905.457764,1224.618530 905.733459,1224.597534 904.925781,1213.987671 
	C904.053833,1202.533203 900.371704,1193.576416 887.194336,1191.392944 
	C877.095703,1189.719727 866.441650,1191.394531 861.140076,1201.817871 
M1183.195679,1248.932251 
	C1187.906494,1247.007690 1191.167969,1243.570679 1192.771729,1238.837280 
	C1195.923828,1229.534424 1195.800171,1219.865601 1194.333618,1210.382202 
	C1193.642334,1205.913208 1191.680786,1201.072144 1188.820679,1197.621704 
	C1182.183838,1189.615479 1172.669922,1190.508545 1163.524536,1191.448853 
	C1153.733398,1192.455322 1149.184814,1198.633301 1146.940430,1207.759033 
	C1144.950195,1215.851562 1144.570923,1224.008911 1146.293823,1231.859009 
	C1147.626587,1237.931519 1148.661743,1245.009155 1155.751343,1248.212769 
	C1164.551392,1252.189453 1173.420654,1252.086304 1183.195679,1248.932251 
M600.612122,1238.743042 
	C602.501648,1241.480103 603.869385,1244.891113 606.375732,1246.831421 
	C614.839722,1253.383789 624.423157,1251.518311 633.885498,1249.449219 
	C640.932739,1247.908203 644.157959,1242.583008 645.861572,1236.388062 
	C648.669678,1226.176392 648.620911,1215.778809 645.861755,1205.544434 
	C644.141357,1199.162964 640.420288,1193.924683 633.625366,1192.557373 
	C628.188477,1191.463257 622.469727,1191.040894 616.934021,1191.351685 
	C610.057129,1191.737671 604.101257,1194.933228 601.401489,1201.612305 
	C596.593201,1213.507812 597.055786,1225.751709 600.612122,1238.743042 
M986.048035,1182.827759 
	C981.889648,1198.303833 981.324707,1213.851807 984.260071,1229.663574 
	C986.682678,1242.713013 993.579712,1250.419922 1007.597900,1250.775513 
	C1016.370789,1250.998169 1025.175171,1249.981934 1033.755615,1249.532715 
	C1033.755615,1245.827271 1033.755615,1243.544434 1033.755615,1241.649780 
	C1026.108643,1242.104248 1018.706482,1242.789062 1011.294312,1242.923462 
	C1001.723938,1243.096924 996.335815,1239.374390 994.115601,1230.041382 
	C990.738159,1215.842896 990.942932,1201.524902 994.928162,1187.370117 
	C996.232178,1182.738281 999.008118,1178.884033 1003.702454,1178.232300 
	C1009.583374,1177.415527 1015.651062,1177.828003 1021.635315,1177.911743 
	C1025.622192,1177.967407 1029.604248,1178.375732 1033.806396,1178.639893 
	C1033.806396,1175.982056 1033.806396,1173.715210 1033.806396,1170.557251 
	C1026.212036,1170.029297 1018.698364,1169.467163 1011.179138,1168.993896 
	C1000.251648,1168.306152 991.514221,1171.826294 986.048035,1182.827759 
M674.930054,1250.813843 
	C682.305420,1249.984131 689.680786,1249.154419 697.572571,1248.266602 
	C699.149902,1252.108276 703.120911,1249.612427 706.555481,1249.568848 
	C706.555481,1230.253052 706.555481,1211.323730 706.555481,1192.384644 
	C703.560852,1192.384644 700.855774,1192.384644 697.996277,1192.384644 
	C697.996277,1205.076782 697.996216,1217.398926 697.996216,1229.721191 
	C697.996216,1239.438232 695.359131,1242.244873 685.395996,1243.006226 
	C683.574646,1243.145508 681.729553,1243.139771 679.904663,1243.036499 
	C674.278259,1242.718506 671.602356,1240.546875 671.064270,1235.067871 
	C670.447144,1228.784058 670.196838,1222.452393 670.068054,1216.135620 
	C669.906128,1208.194580 670.029053,1200.247559 670.029053,1192.254395 
	C666.888916,1192.254395 664.301331,1192.254395 661.262268,1192.254395 
	C661.262268,1202.777100 661.071960,1213.071411 661.339417,1223.353882 
	C661.481689,1228.824951 662.334900,1234.285767 663.014465,1239.732910 
	C663.824524,1246.225586 668.072083,1249.454956 674.930054,1250.813843 
M1441.860718,1242.980835 
	C1438.030884,1242.461914 1434.201172,1241.943115 1429.765015,1241.342041 
	C1430.138306,1244.528809 1430.439697,1247.101318 1430.740112,1249.665161 
	C1433.104126,1249.799438 1435.082642,1249.768433 1437.016968,1250.046265 
	C1445.830688,1251.312256 1454.609741,1252.135620 1463.245728,1249.009521 
	C1470.293823,1246.458252 1473.085205,1241.746826 1473.016724,1232.480713 
	C1472.959595,1224.745605 1470.650269,1221.294922 1463.140625,1219.041870 
	C1456.698730,1217.109131 1450.118896,1215.611328 1443.554688,1214.120361 
	C1439.615234,1213.225586 1437.466675,1210.391113 1438.281006,1207.066040 
	C1438.936890,1204.388184 1441.509155,1200.933594 1443.941895,1200.208740 
	C1448.370605,1198.888916 1453.329102,1199.079590 1458.061646,1199.128052 
	C1462.244141,1199.170654 1466.419800,1199.877197 1470.823975,1200.312866 
	C1470.823975,1197.486694 1470.823975,1195.395386 1470.823975,1193.089600 
	C1466.124390,1192.409058 1461.574951,1191.170898 1457.043823,1191.235107 
	C1450.811768,1191.323364 1444.450684,1191.791870 1438.409424,1193.218262 
	C1432.330322,1194.653564 1429.046265,1200.336914 1428.983521,1206.970947 
	C1428.911377,1214.602783 1431.464355,1219.308594 1437.954956,1221.351562 
	C1444.136841,1223.297241 1450.594727,1224.375122 1456.943115,1225.780518 
	C1461.027466,1226.684570 1463.723511,1229.133545 1464.236572,1233.229004 
	C1464.739014,1237.238281 1462.577271,1240.650757 1458.861206,1241.458618 
	C1453.642456,1242.593262 1448.163696,1242.532593 1441.860718,1242.980835 
M1218.170410,1218.505859 
	C1218.170410,1215.174805 1218.580688,1211.780029 1218.075684,1208.527466 
	C1217.288452,1203.457642 1219.734131,1201.172852 1224.139648,1200.293701 
	C1227.503662,1199.622314 1230.922607,1198.970825 1234.335449,1198.855469 
	C1240.588135,1198.644043 1243.966064,1200.883057 1245.356812,1206.997314 
	C1246.502319,1212.034058 1246.805908,1217.323486 1246.943237,1222.515259 
	C1247.183594,1231.604614 1247.010254,1240.704956 1247.010254,1249.650146 
	C1250.244019,1249.650146 1252.821899,1249.650146 1254.930908,1249.650146 
	C1254.930908,1235.382446 1255.386230,1221.428345 1254.745972,1207.524780 
	C1254.406860,1200.158447 1251.221069,1193.493896 1242.521240,1191.713135 
	C1233.909546,1189.950317 1226.381104,1192.155518 1218.711304,1195.109741 
	C1217.164185,1189.670044 1213.080811,1192.812012 1209.862549,1192.067993 
	C1209.862549,1211.528564 1209.862549,1230.567261 1209.862549,1249.692383 
	C1212.732056,1249.692383 1215.301514,1249.692383 1218.170410,1249.692383 
	C1218.170410,1239.438843 1218.170410,1229.471069 1218.170410,1218.505859 
M918.662964,1199.633301 
	C919.507446,1200.841675 921.052368,1202.032349 921.083557,1203.261353 
	C921.298950,1211.745972 920.964111,1220.247559 921.286865,1228.725342 
	C921.483521,1233.889771 921.927490,1239.211792 923.450134,1244.091797 
	C924.274109,1246.732422 927.367310,1250.137207 929.835938,1250.503052 
	C936.034668,1251.421265 942.460571,1250.806519 949.158081,1250.806519 
	C948.913025,1247.350464 948.766296,1245.281494 948.619141,1243.206665 
	C944.424988,1243.206665 940.780457,1243.270874 937.139282,1243.188232 
	C933.667175,1243.109497 930.931335,1242.024170 930.704224,1237.894531 
	C930.496094,1234.110352 930.049011,1230.332153 930.004211,1226.547852 
	C929.898743,1217.630127 929.970337,1208.710327 929.970337,1199.499512 
	C936.291443,1199.499512 941.917542,1199.499512 947.779480,1199.499512 
	C947.779480,1196.951660 947.779480,1194.711670 947.779480,1191.864258 
	C941.793518,1191.864258 935.918945,1191.864258 929.673218,1191.864258 
	C929.673218,1185.671997 929.673218,1180.085327 929.673218,1174.469238 
	C926.684753,1174.469238 924.106934,1174.469238 920.996826,1174.469238 
	C920.996826,1180.437744 920.996826,1186.158813 920.996826,1191.817383 
	C918.029785,1191.987183 915.605774,1192.125977 913.192871,1192.264038 
	C913.192871,1194.822632 913.192871,1196.955322 913.192871,1199.402100 
	C914.799438,1199.482300 916.258484,1199.555054 918.662964,1199.633301 
M1334.016357,1244.775513 
	C1332.991089,1244.002441 1331.973877,1242.578735 1330.939331,1242.566284 
	C1325.807739,1242.503906 1320.665283,1243.056885 1315.538696,1242.925903 
	C1310.213501,1242.789551 1305.704102,1239.389282 1305.132202,1234.154785 
	C1304.272827,1226.291016 1304.011963,1218.302246 1304.303101,1210.396240 
	C1304.460693,1206.119385 1306.457886,1201.490601 1311.137573,1200.383179 
	C1316.004761,1199.231445 1321.194580,1199.322266 1326.252808,1199.149902 
	C1328.728516,1199.065430 1331.225952,1199.615845 1333.713501,1199.879028 
	C1334.149902,1199.379272 1334.586182,1198.879639 1335.022583,1198.379883 
	C1333.812378,1196.301147 1332.871948,1192.684326 1331.344238,1192.416504 
	C1325.513550,1191.393799 1319.453003,1190.842651 1313.553223,1191.236328 
	C1302.919312,1191.946045 1298.624878,1196.107788 1295.858521,1206.542603 
	C1293.296265,1216.207275 1293.488159,1225.773071 1295.820312,1235.501099 
	C1297.617920,1242.999023 1301.000000,1249.350220 1308.988159,1250.218384 
	C1316.763428,1251.063477 1324.751709,1250.074951 1332.628052,1249.592407 
	C1333.169556,1249.559204 1333.558228,1247.031128 1334.016357,1244.775513 
M1348.116821,1217.500000 
	C1348.116821,1228.251099 1348.116821,1239.002197 1348.116821,1249.741211 
	C1351.380127,1249.741211 1353.975952,1249.741211 1356.741577,1249.741211 
	C1356.741577,1222.128540 1356.741577,1194.760742 1356.741577,1167.317139 
	C1353.797974,1167.317139 1351.093018,1167.317139 1348.116821,1167.317139 
	C1348.116821,1183.933594 1348.116821,1200.216797 1348.116821,1217.500000 
M749.202087,1191.574219 
	C743.519958,1193.841187 737.837891,1196.108276 732.102539,1198.396484 
	C732.009521,1196.271118 731.924438,1194.326904 731.832642,1192.229370 
	C728.964050,1192.229370 726.378784,1192.229370 723.533875,1192.229370 
	C723.533875,1211.476685 723.533875,1230.506470 723.533875,1249.636230 
	C726.488464,1249.636230 729.182861,1249.636230 732.057373,1249.636230 
	C732.057373,1236.661255 732.175537,1224.035522 731.974060,1211.414795 
	C731.923828,1208.270386 732.893677,1206.498657 735.768250,1205.458740 
	C741.517212,1203.379028 747.225952,1201.188232 753.015869,1199.019043 
	C753.015869,1196.924194 753.290344,1194.871704 752.877808,1192.968018 
	C752.717712,1192.229492 751.004456,1191.827637 749.202087,1191.574219 
M1109.567383,1208.500977 
	C1109.567383,1222.232056 1109.567383,1235.963135 1109.567383,1249.626221 
	C1112.851562,1249.626221 1115.414429,1249.626221 1118.148926,1249.626221 
	C1118.148926,1236.807251 1118.311401,1224.327026 1118.046997,1211.855957 
	C1117.970703,1208.255249 1119.182983,1206.276367 1122.368530,1205.150024 
	C1127.840332,1203.214844 1133.305420,1201.260498 1138.650146,1199.358032 
	C1138.650146,1196.518555 1138.650146,1193.816528 1138.650146,1190.203491 
	C1131.519409,1193.021240 1125.010620,1195.593262 1118.182861,1198.291260 
	C1118.056519,1195.973877 1117.959839,1194.201782 1117.856812,1192.311523 
	C1115.035034,1192.311523 1112.463379,1192.311523 1109.567261,1192.311523 
	C1109.567261,1197.560303 1109.567261,1202.531128 1109.567383,1208.500977 
M1271.791382,1214.500000 
	C1271.791382,1226.246582 1271.791382,1237.993164 1271.791382,1249.595459 
	C1275.049683,1249.595459 1277.604980,1249.595459 1280.333740,1249.595459 
	C1280.333740,1239.733765 1280.333618,1230.244019 1280.333618,1220.754395 
	C1280.333618,1211.314819 1280.333740,1201.875122 1280.333740,1192.313721 
	C1277.238403,1192.313721 1274.671997,1192.313721 1271.791382,1192.313721 
	C1271.791382,1199.561890 1271.791382,1206.530884 1271.791382,1214.500000 
M1278.443359,1168.930664 
	C1276.345337,1168.930664 1274.247192,1168.930664 1272.042725,1168.930664 
	C1272.042725,1172.483154 1272.042725,1175.530396 1272.042725,1178.707520 
	C1274.856079,1178.707520 1277.411987,1178.707520 1280.686646,1178.707520 
	C1280.236206,1175.262939 1279.827148,1172.134888 1278.443359,1168.930664 
z"/>
<path fill="#8D0320" opacity="1.000000" stroke="none" 
	d="
M1220.000244,494.666168 
	C1233.831299,494.666168 1247.162476,494.665833 1260.493530,494.666412 
	C1268.020142,494.666748 1271.757446,499.952240 1268.183960,506.923706 
	C1266.129272,510.932007 1262.532959,514.784729 1258.662720,517.064453 
	C1253.987305,519.818481 1251.031250,523.396545 1248.402466,527.865173 
	C1236.779419,547.622131 1222.994751,565.779846 1206.936035,582.140259 
	C1191.317261,598.052368 1173.558960,611.375122 1153.760864,621.438904 
	C1133.091187,631.945740 1111.089966,639.081970 1087.900391,641.935303 
	C1082.675171,642.578186 1077.447266,643.202942 1072.212402,643.760681 
	C1061.190063,644.934998 1054.791870,653.981140 1057.258301,664.980774 
	C1057.473389,665.940430 1057.890747,666.876526 1057.963745,667.842468 
	C1058.305542,672.362671 1059.958984,675.174500 1065.048218,676.151062 
	C1070.911865,677.276184 1074.314209,681.716370 1075.411865,687.542603 
	C1076.349976,692.521423 1074.655762,696.633423 1070.002319,699.534180 
	C1096.829346,710.278259 1123.364380,720.905334 1149.899292,731.532410 
	C1149.810791,731.859192 1149.722168,732.185913 1149.633667,732.512695 
	C1075.483765,733.337402 1001.333923,734.162048 927.184082,734.986755 
	C927.096619,734.770630 927.009216,734.554504 926.921753,734.338379 
	C932.887817,731.603455 938.814026,728.777222 944.827942,726.152039 
	C958.688782,720.101501 972.588867,714.140686 986.480347,708.160278 
	C992.085388,705.747192 997.706421,703.371094 1003.326477,700.993042 
	C1006.008850,699.858093 1006.367554,698.182495 1005.900879,695.237122 
	C1005.314575,691.537354 1005.424927,687.487793 1006.312439,683.852234 
	C1007.523987,678.889160 1011.959595,677.147583 1016.554016,676.079346 
	C1019.316101,675.437134 1021.245239,674.403076 1021.285706,670.859436 
	C1021.328979,667.071167 1023.280762,663.129211 1022.679260,659.542847 
	C1021.029297,649.704895 1011.878235,645.947937 1003.144348,644.939148 
	C985.786621,642.934082 968.413940,641.215759 951.808716,635.283813 
	C931.182190,627.915405 911.905884,618.005981 895.286865,603.625916 
	C884.709290,594.473389 873.778870,585.397278 864.864136,574.734070 
	C852.292847,559.697083 841.645508,543.066406 829.725220,527.461060 
	C826.293701,522.968811 821.300903,519.672974 817.044983,515.805481 
	C814.061279,513.094177 810.876953,510.553436 808.213623,507.553558 
	C805.374634,504.355927 805.293701,500.202850 807.897644,497.116730 
	C809.294006,495.461823 812.613770,494.763641 815.066467,494.761688 
	C949.877625,494.654114 1084.688843,494.666229 1220.000244,494.666168 
M1035.742920,683.066223 
	C1031.049072,684.092285 1026.230835,684.757141 1021.718567,686.310608 
	C1019.731567,686.994690 1017.398499,689.311890 1017.056519,691.216858 
	C1016.824890,692.507263 1019.493835,695.097839 1021.371765,695.860718 
	C1033.434448,700.761292 1045.703247,700.861877 1057.774658,695.938599 
	C1059.753418,695.131531 1061.979492,692.699097 1062.261475,690.752686 
	C1062.448364,689.463745 1059.579590,686.722290 1057.718140,686.326172 
	C1050.787109,684.851196 1043.706787,684.076965 1035.742920,683.066223 
z"/>
<path fill="#8E0320" opacity="1.000000" stroke="none" 
	d="
M1024.868896,278.000397 
	C1032.915771,276.070068 1040.553345,274.183899 1047.692749,272.420807 
	C1045.709106,281.018799 1043.030884,288.971405 1042.227905,297.109009 
	C1041.379028,305.711304 1045.908813,312.864166 1052.186279,319.617065 
	C1058.322021,306.625732 1067.409668,297.270691 1081.011108,293.081177 
	C1090.760010,290.078339 1100.577637,290.221436 1110.236694,293.397308 
	C1130.227417,299.970215 1139.850586,316.521515 1140.044067,344.647034 
	C1149.880493,347.358490 1158.382202,352.457001 1164.275146,361.123474 
	C1170.671753,370.530457 1174.067505,381.156769 1175.944092,392.267853 
	C1176.876343,397.787720 1177.429443,403.378448 1177.981567,408.954163 
	C1179.076904,420.014618 1174.367676,429.362122 1168.741943,438.268494 
	C1164.243408,445.390350 1154.755493,446.989594 1148.482178,438.667236 
	C1142.108765,430.212189 1137.921631,420.643677 1136.382324,410.076965 
	C1135.970703,407.250763 1135.775879,405.696716 1131.897949,406.749634 
	C1122.106689,409.408142 1114.836670,415.746887 1107.475098,422.062042 
	C1103.568604,425.413147 1099.923218,429.072784 1095.965820,432.359222 
	C1090.630615,436.789886 1084.797241,439.698151 1077.419067,439.071503 
	C1060.466187,437.631561 1044.330078,440.934113 1029.469482,449.217316 
	C1020.138489,454.418396 1011.798706,460.887299 1007.777649,471.504700 
	C1007.371277,472.577820 1005.311462,473.539825 1003.947327,473.647797 
	C997.325073,474.171906 990.681519,474.496582 984.039673,474.690552 
	C967.108826,475.184998 950.175476,475.597931 933.241943,475.994995 
	C917.475037,476.364716 901.700684,476.502716 885.940491,477.054352 
	C870.201965,477.605225 854.476929,478.542694 838.243713,479.335236 
	C843.619080,466.513733 853.105042,458.421387 864.353577,452.217529 
	C869.624390,449.310577 875.421143,447.371704 880.838135,444.706696 
	C882.517761,443.880341 884.320679,442.373444 885.062744,440.725739 
	C889.388184,431.121490 894.813660,422.745667 906.850464,419.714203 
	C902.578491,413.501770 898.746826,407.783508 894.767395,402.169952 
	C882.688904,385.131592 868.098267,370.230042 852.768188,356.305664 
	C838.407837,343.262054 822.314270,332.238953 805.359741,322.482452 
	C785.458008,311.029999 764.657593,301.735687 742.841492,294.889008 
	C735.674988,292.639893 733.562256,287.248444 731.183044,281.843811 
	C729.289429,277.542053 733.444458,270.924561 740.587219,268.220093 
	C752.399658,263.747498 764.577942,260.204590 776.700745,256.602203 
	C783.327209,254.633102 790.120544,253.156860 796.916748,251.871124 
	C798.852051,251.504990 801.626221,251.909531 803.059814,253.106033 
	C823.504456,270.167969 842.698792,288.515747 860.783997,308.111420 
	C886.898010,336.406494 910.127197,366.893707 931.728210,398.678253 
	C934.069336,402.123077 935.173645,401.755768 937.112061,398.534698 
	C945.313110,384.906647 953.906738,371.506500 961.767151,357.687622 
	C963.725464,354.244751 963.683350,349.575592 964.217102,345.425903 
	C966.757996,325.670837 974.937561,308.748413 990.019592,295.650330 
	C999.958740,287.018646 1011.709778,281.431610 1024.868896,278.000397 
M1095.499756,358.813141 
	C1097.140137,358.584412 1098.805664,358.468079 1100.416992,358.108856 
	C1111.550903,355.626770 1119.370117,344.333740 1117.795654,333.081116 
	C1116.131470,321.187286 1105.717651,312.616302 1094.063721,313.548889 
	C1081.552490,314.550079 1072.638062,323.986481 1072.743652,336.117035 
	C1072.850586,348.394043 1080.976685,356.804443 1095.499756,358.813141 
z"/>
<path fill="#FF908B" opacity="1.000000" stroke="none" 
	d="
M769.000000,785.918396 
	C1000.135681,785.918396 1230.771362,785.918335 1461.406982,785.918884 
	C1471.247559,785.918945 1475.956787,789.161194 1475.697144,795.749146 
	C1475.442749,802.210083 1471.052490,805.081299 1461.420166,805.081299 
	C1153.794800,805.081482 846.169495,805.086304 538.544128,805.015259 
	C535.372864,805.014526 531.738647,804.812195 529.136719,803.299866 
	C524.997131,800.893860 523.978943,796.371338 525.725708,791.951233 
	C527.378418,787.769348 530.700439,785.841980 535.532104,785.855713 
	C577.692810,785.975159 619.853882,785.920227 662.014893,785.918701 
	C697.509949,785.917419 733.004944,785.918457 769.000000,785.918396 
z"/>
<path fill="#FF908B" opacity="1.000000" stroke="none" 
	d="
M719.000000,850.000000 
	C658.508972,850.000000 598.517944,850.001465 538.526917,849.993408 
	C536.529236,849.993103 534.494080,850.122559 532.541260,849.799316 
	C527.711182,848.999878 524.903503,844.979309 525.199463,839.635498 
	C525.501892,834.176147 528.149292,831.313538 533.372314,830.935547 
	C535.363159,830.791443 537.368652,830.822449 539.367493,830.822449 
	C846.821533,830.818176 1154.275635,830.818237 1461.729614,830.819092 
	C1463.229370,830.819092 1464.732056,830.772278 1466.228271,830.848999 
	C1471.689819,831.128906 1475.478638,834.838318 1475.582397,839.953491 
	C1475.683716,844.944214 1471.511475,849.534180 1466.386597,849.961243 
	C1464.731201,850.099243 1463.055664,849.999390 1461.389282,849.999390 
	C1214.092896,850.000122 966.796448,850.000000 719.000000,850.000000 
z"/>
<path fill="#FF918C" opacity="1.000000" stroke="none" 
	d="
M1050.007080,1013.799988 
	C1049.700928,987.835938 1049.478760,962.350281 1048.989136,936.869812 
	C1048.906250,932.555664 1050.114868,930.933350 1054.532715,930.948242 
	C1059.638306,930.965454 1064.746460,930.224854 1070.539551,929.758057 
	C1070.539551,935.984436 1070.539551,941.712097 1070.539551,948.950012 
	C1075.233154,945.450989 1078.654907,942.561646 1082.397705,940.176147 
	C1091.893188,934.124390 1101.425903,928.328186 1113.485107,928.921570 
	C1128.093750,929.640442 1140.476807,933.990173 1148.022827,947.570496 
	C1148.487549,948.407104 1149.106079,949.158447 1148.955566,948.940796 
	C1160.147217,942.709412 1170.483398,935.334961 1181.961060,930.944702 
	C1198.999390,924.427673 1225.230347,931.636414 1231.311401,953.083313 
	C1232.337280,956.700989 1232.911987,960.571533 1232.931885,964.329285 
	C1233.069214,990.325989 1232.939453,1016.324158 1233.053711,1042.321045 
	C1233.079834,1048.259766 1233.724365,1054.195679 1234.111084,1060.575928 
	C1226.333496,1060.575928 1219.095825,1060.575928 1211.001099,1060.575928 
	C1211.001099,1058.654907 1210.976562,1056.577271 1211.004883,1054.500366 
	C1211.381470,1026.849976 1211.823975,999.200256 1212.103516,971.548889 
	C1212.167847,965.191101 1210.976685,958.989563 1206.539795,954.043640 
	C1199.739868,946.463562 1190.733032,946.941406 1182.044800,948.540710 
	C1170.725586,950.624329 1161.841919,957.464294 1153.988892,965.548279 
	C1152.788818,966.783569 1152.095459,969.037354 1152.086914,970.824524 
	C1151.966431,995.988098 1151.952148,1021.152649 1152.053711,1046.316284 
	C1152.072266,1050.918579 1152.719727,1055.518188 1153.112305,1060.573975 
	C1144.971558,1060.573975 1137.404541,1060.573975 1129.006104,1060.573975 
	C1129.006104,1055.309082 1128.866333,1049.884155 1129.038452,1044.468994 
	C1129.306763,1036.020264 1129.925537,1027.581787 1130.146973,1019.132385 
	C1130.564819,1003.194275 1130.911499,987.252502 1131.067139,971.310120 
	C1131.129272,964.946716 1129.849976,958.780212 1125.355591,953.865417 
	C1118.628662,946.509155 1109.741577,946.919800 1101.261719,948.473694 
	C1089.268799,950.671326 1080.143677,958.461426 1071.426270,966.436768 
	C1070.264404,967.499817 1070.152222,970.110291 1070.167114,971.999390 
	C1070.385132,999.650146 1070.708374,1027.300049 1071.002197,1054.950195 
	C1071.021240,1056.746216 1071.004517,1058.542480 1071.004517,1060.660889 
	C1063.295166,1060.660889 1056.046875,1060.660889 1048.337280,1060.660889 
	C1048.892212,1045.190918 1049.446533,1029.735474 1050.007080,1013.799988 
z"/>
<path fill="#FF928D" opacity="1.000000" stroke="none" 
	d="
M553.518860,1023.057251 
	C552.293945,1031.222534 553.313965,1033.644165 560.793091,1035.412476 
	C572.022766,1038.067261 583.559937,1039.431763 594.772766,1042.145020 
	C604.653198,1044.535767 614.738098,1047.010620 623.893066,1051.258057 
	C638.450684,1058.012085 639.785889,1072.649536 634.677795,1085.358643 
	C629.504395,1098.230469 618.845886,1105.833862 606.488647,1110.519287 
	C588.034363,1117.516357 568.993896,1119.090576 550.236267,1111.630005 
	C538.044739,1106.781006 530.535278,1097.819336 527.836243,1084.377686 
	C526.283325,1076.644287 530.732300,1072.432861 534.702332,1068.085815 
	C539.759827,1062.548096 545.933350,1058.029663 551.876282,1052.853516 
	C548.254883,1051.044800 544.516479,1049.226440 540.822449,1047.321777 
	C534.645874,1044.137085 531.517334,1038.488647 531.335327,1032.087646 
	C531.243774,1028.868042 533.995117,1025.138550 536.335205,1022.381897 
	C539.631104,1018.499451 543.738953,1015.306152 547.483093,1011.833496 
	C543.927612,1007.713562 539.761475,1003.945801 536.879272,999.369446 
	C521.482971,974.923157 530.988403,934.417297 568.366455,929.894836 
	C581.098938,928.354309 593.453491,928.496338 605.604797,933.197388 
	C607.632263,933.981812 610.439453,933.193054 612.777588,932.656860 
	C623.589294,930.177124 634.403259,927.684082 645.127258,924.857666 
	C648.801086,923.889343 650.148315,924.745361 650.011841,928.429688 
	C649.402039,944.892578 653.600525,940.456787 636.622864,944.871460 
	C632.527588,945.936340 628.349792,946.683960 624.288940,947.560425 
	C626.037781,953.602112 628.007629,958.845154 629.047607,964.266602 
	C633.924561,989.688721 618.718323,1011.944763 593.229004,1016.845764 
	C583.294617,1018.755981 573.277222,1018.827087 563.336670,1016.834778 
	C558.120361,1015.789307 556.199646,1019.562500 553.518860,1023.057251 
M555.569519,955.204590 
	C549.632629,964.630676 549.502502,974.879822 552.359192,985.062073 
	C555.963684,997.909180 568.663513,1004.092163 585.026062,1002.229187 
	C596.240479,1000.952332 604.442261,995.516113 607.690369,984.785522 
	C611.463135,972.321716 611.179993,960.067444 600.781921,950.130371 
	C592.022156,941.758789 566.054932,940.485657 555.569519,955.204590 
M585.979553,1099.746704 
	C595.156860,1098.427734 603.750427,1095.903320 611.099792,1089.726318 
	C619.507507,1082.659668 620.868713,1066.799561 605.470764,1063.073364 
	C594.346436,1060.381470 583.062988,1058.340698 571.829285,1056.116943 
	C570.792847,1055.911743 569.309082,1056.122803 568.529907,1056.754028 
	C562.622803,1061.538818 556.018372,1065.790894 551.219116,1071.535400 
	C544.754639,1079.273071 547.439514,1089.222168 556.086731,1094.616821 
	C565.061401,1100.215576 575.023743,1100.255493 585.979553,1099.746704 
z"/>
<path fill="#FF928D" opacity="1.000000" stroke="none" 
	d="
M1356.663208,937.267456 
	C1368.808716,947.434570 1373.127075,960.568970 1372.990967,975.557373 
	C1372.951782,979.876099 1373.060913,984.237183 1372.496826,988.498779 
	C1371.904419,992.974487 1369.293945,995.152710 1364.286377,995.098511 
	C1340.633057,994.842896 1316.976318,994.909363 1293.320801,994.862122 
	C1291.365845,994.858215 1289.410767,994.861633 1287.229126,994.861633 
	C1287.989868,1006.727051 1288.731079,1017.887390 1295.124146,1027.764771 
	C1304.542603,1042.316406 1319.609863,1046.392578 1334.483521,1044.697510 
	C1344.927612,1043.507202 1354.791016,1040.191772 1363.671143,1034.267944 
	C1364.877930,1033.462891 1366.738525,1033.637939 1368.296387,1033.359131 
	C1368.523315,1034.772217 1369.088379,1036.228271 1368.915283,1037.590454 
	C1368.353394,1042.010742 1367.789429,1046.467773 1366.655029,1050.759521 
	C1366.229858,1052.368530 1364.472290,1054.351929 1362.918457,1054.817383 
	C1353.158325,1057.741089 1343.345581,1060.545166 1333.430786,1062.881470 
	C1323.514526,1065.218140 1313.845093,1063.012817 1304.351440,1060.054321 
	C1287.795776,1054.895020 1277.133301,1043.381592 1271.334473,1027.595825 
	C1263.226929,1005.525024 1263.565796,983.093689 1272.657715,961.466614 
	C1281.576660,940.250671 1298.144531,928.911438 1321.442871,928.029358 
	C1333.989502,927.554382 1345.903687,929.528809 1356.663208,937.267456 
M1325.302490,978.841553 
	C1334.046997,978.841553 1342.791626,978.841553 1352.006104,978.841553 
	C1352.006104,974.161499 1352.245361,970.864746 1351.963135,967.613159 
	C1350.946045,955.894897 1344.011475,947.466492 1333.519043,944.907471 
	C1311.896606,939.633911 1291.723145,955.099731 1289.494873,978.848389 
	C1301.121704,978.848389 1312.731812,978.848389 1325.302490,978.841553 
z"/>
<path fill="#FF928D" opacity="1.000000" stroke="none" 
	d="
M713.682373,1063.073364 
	C700.677429,1062.809814 689.483398,1058.483521 680.689819,1049.797241 
	C671.369507,1040.590576 665.634216,1028.927734 664.250061,1015.808289 
	C663.159058,1005.467957 662.379883,994.905457 663.248718,984.592163 
	C664.523804,969.456970 669.454102,955.208374 679.958557,943.709778 
	C688.961914,933.854431 700.891418,929.482727 713.848755,928.295410 
	C727.762390,927.020508 741.485779,928.233643 753.559265,936.202515 
	C766.782227,944.930054 773.888489,957.947876 776.665833,973.107056 
	C780.045471,991.553650 779.448059,1009.972534 773.063965,1027.864136 
	C765.812561,1048.186279 748.195618,1061.762817 725.787903,1062.963623 
	C721.910645,1063.171509 718.017395,1063.081787 713.682373,1063.073364 
M711.800842,944.990417 
	C698.089783,948.158997 690.378967,957.507202 687.200745,970.468689 
	C683.094177,987.216431 683.616333,1004.141235 688.122986,1020.799316 
	C690.146240,1028.278076 693.690674,1035.130005 699.996704,1040.012695 
	C719.908569,1055.430420 748.774963,1045.283813 754.881226,1020.461548 
	C759.006775,1003.690674 758.422058,986.716614 753.765686,970.133423 
	C748.108887,949.986816 732.724731,940.830627 711.800842,944.990417 
z"/>
<path fill="#FF928D" opacity="1.000000" stroke="none" 
	d="
M834.190491,939.181030 
	C834.068848,953.151855 834.013367,966.647827 833.818787,980.141907 
	C833.617310,994.107544 833.132935,1008.070435 833.053101,1022.036133 
	C832.995544,1032.109253 839.216370,1041.648315 847.827698,1042.550903 
	C854.692627,1043.270508 862.124084,1042.302734 868.765198,1040.298340 
	C874.384705,1038.602417 879.435608,1034.633545 884.356567,1031.134033 
	C888.346802,1028.296387 890.339233,1024.498413 890.258667,1018.911377 
	C889.867004,991.758972 890.224304,964.596436 889.956726,937.440979 
	C889.905579,932.246216 891.615356,930.811890 896.486084,930.904419 
	C901.394165,930.997681 906.318420,930.242615 911.802795,929.815002 
	C911.802795,939.003174 911.891846,947.605530 911.784668,956.205444 
	C911.542053,975.686523 911.182678,995.166138 910.913574,1014.646912 
	C910.819214,1021.476868 910.741089,1028.310425 910.854553,1035.138916 
	C910.967712,1041.948120 914.910522,1045.061401 921.475037,1043.794800 
	C931.573181,1041.846313 931.676514,1042.135864 929.697937,1052.416626 
	C928.933350,1056.389648 926.782593,1058.178955 923.400513,1059.747437 
	C915.110840,1063.591553 906.860229,1064.274780 900.019165,1057.729980 
	C896.057678,1053.940063 893.744568,1048.427368 890.343994,1043.153931 
	C888.033508,1044.896851 885.116760,1047.231934 882.064880,1049.374512 
	C872.366516,1056.183350 862.395813,1063.205811 850.035095,1062.734985 
	C829.059082,1061.936279 812.334473,1051.567871 812.174561,1026.328979 
	C812.025818,1002.844666 812.145203,979.358582 811.987915,955.874390 
	C811.943604,949.261841 811.425903,942.647034 810.958252,936.045105 
	C810.723877,932.736267 811.744080,931.173767 815.317261,931.068604 
	C821.574402,930.884583 827.819946,930.303589 834.195557,929.880615 
	C834.195557,933.191650 834.195557,935.948486 834.190491,939.181030 
z"/>
<path fill="#8F0622" opacity="1.000000" stroke="none" 
	d="
M1066.000000,478.887482 
	C1052.685303,478.887482 1039.870728,478.887482 1026.499878,478.887482 
	C1034.861572,470.986542 1041.720093,461.746490 1052.927856,458.756104 
	C1058.547241,457.256775 1064.811646,456.586304 1070.530273,457.377411 
	C1082.603760,459.047699 1093.966553,456.946930 1104.860718,452.433533 
	C1112.228516,449.381134 1119.011841,444.917755 1126.140015,441.040100 
	C1131.255737,453.491608 1140.999512,460.225128 1154.925903,461.449677 
	C1165.807495,462.406494 1181.559814,455.862396 1184.194946,442.191345 
	C1184.414429,441.052826 1186.626099,439.174683 1187.289673,439.408264 
	C1208.458618,446.859009 1226.804810,458.189545 1238.845093,477.900879 
	C1238.911621,478.009888 1238.812134,478.220184 1238.722534,478.887482 
	C1181.362427,478.887482 1123.931274,478.887482 1066.000000,478.887482 
z"/>
<path fill="#FF928D" opacity="1.000000" stroke="none" 
	d="
M1394.276367,932.179077 
	C1398.509277,931.504456 1402.603149,931.043396 1406.695190,931.057739 
	C1409.880127,931.068848 1411.218140,930.057068 1411.049683,926.720154 
	C1410.823120,922.234802 1411.197876,917.716858 1410.922852,913.237000 
	C1410.737549,910.218811 1411.931030,908.755493 1414.602295,907.718201 
	C1419.044800,905.993225 1423.383301,903.997925 1427.750122,902.081299 
	C1431.710693,900.343079 1433.905029,901.518311 1433.852539,905.846375 
	C1433.772095,912.478943 1433.468872,919.119568 1432.946655,925.732056 
	C1432.628418,929.762512 1434.150269,930.926575 1438.049683,930.840210 
	C1448.037598,930.619141 1458.040771,930.985413 1468.023438,930.668396 
	C1472.560547,930.524231 1473.586060,932.398682 1472.915039,936.280029 
	C1472.605347,938.071533 1471.995361,939.879944 1472.076294,941.655457 
	C1472.233276,945.103638 1470.523438,945.895752 1467.493408,945.866699 
	C1457.668091,945.772461 1447.841064,945.821838 1438.014771,945.844116 
	C1436.554199,945.847473 1435.093750,946.002869 1433.498413,946.095764 
	C1433.309814,946.947571 1433.059326,947.567932 1433.050659,948.191772 
	C1432.684937,974.491211 1432.261230,1000.790405 1432.032349,1027.091187 
	C1431.937988,1037.931763 1436.997437,1043.375610 1447.724731,1043.004639 
	C1453.863403,1042.792358 1459.930786,1040.679932 1466.045044,1039.499878 
	C1467.843628,1039.152832 1469.692993,1039.069092 1471.519165,1038.864746 
	C1471.691284,1040.458496 1471.879517,1042.050537 1472.032959,1043.646118 
	C1472.824097,1051.873169 1468.953613,1056.593140 1461.057373,1058.418823 
	C1454.961914,1059.828125 1448.756958,1063.080444 1442.856445,1062.567993 
	C1427.254639,1061.213013 1414.369385,1052.985718 1412.307129,1035.704956 
	C1411.399170,1028.096313 1412.022095,1020.300476 1412.014893,1012.589539 
	C1411.994629,990.626343 1412.007690,968.663086 1412.007690,946.139282 
	C1405.821777,946.139282 1399.917603,946.139282 1392.780518,946.139282 
	C1393.275391,941.196960 1393.706055,936.897217 1394.276367,932.179077 
z"/>
<path fill="#FF918C" opacity="1.000000" stroke="none" 
	d="
M978.964722,956.082520 
	C981.605957,952.554932 984.279602,949.051086 986.882324,945.495361 
	C995.959595,933.094727 1008.329895,928.765137 1023.985229,930.328796 
	C1023.985229,937.321716 1024.143555,944.084229 1023.788940,950.819702 
	C1023.743591,951.681213 1021.040161,953.035034 1019.544312,953.067505 
	C1015.314087,953.159668 1010.956055,951.938416 1006.855835,952.573792 
	C995.334229,954.358948 989.555298,963.356323 983.902954,972.253052 
	C979.630310,978.978210 977.499573,986.074402 977.830322,994.323669 
	C978.629333,1014.252686 978.666199,1034.212402 979.001343,1054.159912 
	C979.034790,1056.148804 979.005859,1058.138794 979.005859,1060.556641 
	C971.396423,1060.556641 964.031921,1060.556641 955.748718,1060.556641 
	C956.170898,1055.779297 956.826050,1051.099487 956.944885,1046.406006 
	C957.142700,1038.589844 956.911987,1030.763916 957.013062,1022.944092 
	C957.225586,1006.515198 957.715454,990.088013 957.747986,973.659424 
	C957.772705,961.186707 957.401062,948.707764 956.919556,936.242615 
	C956.763245,932.197815 958.282532,931.044189 962.079285,930.979797 
	C967.172180,930.893372 972.255371,930.238037 978.082764,929.767151 
	C978.082764,937.894165 978.082764,945.482178 978.065735,953.846985 
	C978.354065,955.109985 978.659424,955.596313 978.964722,956.082520 
z"/>
<path fill="#910B27" opacity="1.000000" stroke="none" 
	d="
M776.952332,1200.777588 
	C772.881897,1201.458740 771.951294,1203.613159 772.002869,1207.206177 
	C772.205444,1221.321167 772.085815,1235.440796 772.085815,1249.770020 
	C769.059082,1249.770020 766.474365,1249.770020 763.615723,1249.770020 
	C763.615723,1230.525024 763.615723,1211.454346 763.615723,1191.431152 
	C767.095093,1192.186035 770.100220,1192.838013 773.105347,1193.489990 
	C773.002136,1193.971313 772.898865,1194.452637 772.795593,1194.934082 
	C782.947571,1190.627563 793.006531,1188.161743 803.038391,1195.466919 
	C803.935425,1196.120239 806.121277,1195.025391 807.702820,1194.713013 
	C813.969666,1193.475952 820.196472,1191.477783 826.508545,1191.159546 
	C835.871460,1190.687500 842.160400,1196.022339 842.840515,1205.283203 
	C843.920044,1219.982788 844.050598,1234.752197 844.591858,1249.749878 
	C841.096985,1249.749878 838.507629,1249.749878 835.339783,1249.749878 
	C835.339783,1242.211792 835.471985,1234.755859 835.299500,1227.307007 
	C835.151367,1220.908325 834.781494,1214.507568 834.273743,1208.126465 
	C833.845703,1202.747681 829.860107,1198.671265 824.263550,1198.950073 
	C818.497437,1199.237305 812.792786,1200.759399 807.768799,1201.619873 
	C807.768799,1218.485596 807.768799,1233.898926 807.768799,1249.651611 
	C805.666809,1249.651611 803.091431,1249.651611 799.834473,1249.651611 
	C799.834473,1243.500977 799.918823,1237.241211 799.811707,1230.984863 
	C799.694885,1224.163330 799.781616,1217.306519 799.098328,1210.533813 
	C797.949829,1199.150269 792.848022,1198.286377 783.942444,1199.035889 
	C781.715393,1199.223389 779.545410,1200.089111 776.952332,1200.777588 
z"/>
<path fill="#900925" opacity="1.000000" stroke="none" 
	d="
M528.125488,1199.892822 
	C528.890808,1189.957031 530.610168,1181.064087 538.370789,1174.235107 
	C542.657227,1170.463135 547.677551,1169.188477 552.661804,1169.201660 
	C562.392456,1169.227539 572.142883,1170.168579 581.840332,1171.165771 
	C587.415039,1171.739136 583.546570,1176.003296 585.227722,1179.198608 
	C578.477600,1178.416748 572.894104,1177.318726 567.296814,1177.242676 
	C561.115479,1177.158691 554.790771,1177.383667 548.770691,1178.637207 
	C543.051025,1179.828125 540.354675,1184.992554 539.096130,1190.270630 
	C535.982361,1203.328247 535.998596,1216.513062 539.059082,1229.588989 
	C541.066284,1238.165283 547.243408,1242.942139 556.218140,1242.952881 
	C561.676819,1242.959351 567.157532,1242.572632 572.579102,1241.940186 
	C573.821533,1241.795288 575.794556,1239.952515 575.842224,1238.823975 
	C576.142334,1231.710693 575.994324,1224.578491 575.994324,1217.008667 
	C571.230286,1217.008667 566.814636,1217.008667 562.203979,1217.008667 
	C562.203979,1214.280640 562.203979,1211.997070 562.203979,1209.348877 
	C569.466919,1209.348877 576.862122,1209.348877 584.914734,1209.348877 
	C584.914734,1218.647217 584.914734,1228.073364 584.914734,1237.499634 
	C584.914734,1249.411621 584.915283,1249.423096 572.903931,1250.006958 
	C566.444946,1250.320923 559.981873,1250.859253 553.523804,1250.816162 
	C541.747742,1250.737549 533.605957,1244.616211 530.513977,1233.615479 
	C527.492737,1222.866455 525.289734,1211.696411 528.125488,1199.892822 
z"/>
<path fill="#910A26" opacity="1.000000" stroke="none" 
	d="
M1056.213501,1202.989746 
	C1056.213501,1218.434937 1056.213501,1233.880005 1056.213501,1249.653809 
	C1053.136963,1249.653809 1050.444580,1249.653809 1047.515747,1249.653809 
	C1047.515747,1222.133301 1047.515747,1194.779907 1047.515747,1167.205566 
	C1050.346191,1167.205566 1052.933105,1167.205566 1056.068848,1167.205566 
	C1056.068848,1175.868896 1056.068848,1184.461304 1056.111328,1193.821045 
	C1056.820679,1194.416992 1057.487549,1194.245728 1058.154419,1194.074463 
	C1064.596191,1193.058960 1071.133057,1190.817139 1077.458252,1191.306641 
	C1087.736938,1192.102051 1091.610474,1195.382812 1092.755249,1209.440430 
	C1093.831787,1222.660889 1092.985962,1236.037842 1092.985962,1249.665283 
	C1090.637085,1249.665283 1088.058594,1249.665283 1084.826904,1249.665283 
	C1084.826904,1241.970825 1085.056274,1234.208740 1084.755859,1226.467163 
	C1084.507935,1220.082764 1083.865601,1213.689697 1082.967041,1207.361694 
	C1082.158081,1201.665039 1078.479980,1198.531250 1072.501953,1198.911255 
	C1067.493286,1199.229858 1062.555298,1200.660278 1057.028320,1201.839966 
	C1056.385010,1202.384277 1056.299194,1202.687012 1056.213501,1202.989746 
z"/>
<path fill="#910C28" opacity="1.000000" stroke="none" 
	d="
M1394.003418,1224.618408 
	C1389.386597,1224.618408 1385.269531,1224.618408 1380.056885,1224.618408 
	C1381.054321,1229.081909 1381.116577,1233.293945 1382.967285,1236.460571 
	C1384.593384,1239.243042 1388.068604,1242.399048 1390.995972,1242.690674 
	C1399.362915,1243.524048 1407.866699,1242.983887 1416.428833,1242.983887 
	C1417.920898,1249.164429 1417.554810,1249.686523 1411.163330,1250.002441 
	C1404.734619,1250.320312 1398.296753,1250.529175 1391.881348,1251.024048 
	C1382.711914,1251.731323 1374.625732,1244.080078 1372.820312,1235.310913 
	C1370.928345,1226.120850 1370.809448,1217.408081 1372.941895,1208.359375 
	C1376.682861,1192.486084 1387.690430,1189.318970 1401.272705,1191.474976 
	C1413.019531,1193.339600 1418.909668,1201.506592 1418.969727,1214.121826 
	C1419.029785,1226.750854 1420.474976,1224.379028 1408.986816,1224.602905 
	C1404.160645,1224.697021 1399.331177,1224.618530 1394.003418,1224.618408 
M1387.608765,1217.669189 
	C1395.053345,1217.669189 1402.497925,1217.669189 1410.272949,1217.669189 
	C1410.139404,1210.714722 1410.405518,1204.245728 1404.209229,1200.143677 
	C1399.591309,1197.086548 1391.011353,1197.477051 1386.653076,1200.826782 
	C1381.175659,1205.036743 1380.492188,1210.945435 1380.826660,1217.669067 
	C1383.029541,1217.669067 1384.836060,1217.669067 1387.608765,1217.669189 
z"/>
<path fill="#910C28" opacity="1.000000" stroke="none" 
	d="
M861.321899,1201.482666 
	C866.441650,1191.394531 877.095703,1189.719727 887.194336,1191.392944 
	C900.371704,1193.576416 904.053833,1202.533203 904.925781,1213.987671 
	C905.733459,1224.597534 905.457764,1224.618530 895.096130,1224.618530 
	C885.635132,1224.618530 876.174133,1224.618530 866.446045,1224.618530 
	C866.657959,1227.398804 866.740356,1229.802612 867.041992,1232.178589 
	C867.804199,1238.182495 872.530640,1242.850342 878.566162,1243.031616 
	C886.497009,1243.269897 894.440369,1243.090210 902.466919,1243.090210 
	C903.797607,1249.362305 903.563660,1249.734741 896.986572,1249.986938 
	C889.406311,1250.277832 881.823242,1250.512085 874.239441,1250.685303 
	C867.482056,1250.839600 861.704712,1244.115845 860.134033,1239.741943 
	C856.179871,1228.730225 855.910156,1217.474854 859.157898,1206.202759 
	C859.597412,1204.677368 860.468750,1203.276489 861.321899,1201.482666 
M896.232239,1215.354126 
	C896.081726,1213.369629 896.108459,1211.351929 895.745056,1209.407104 
	C894.884949,1204.804321 893.021973,1200.703979 888.156433,1199.183716 
	C882.362671,1197.373169 876.533081,1197.355225 871.694519,1201.577148 
	C866.930847,1205.733765 866.489197,1211.448975 866.649658,1217.659546 
	C876.064087,1217.659546 885.001343,1217.693359 893.937256,1217.599121 
	C894.702576,1217.591187 895.458984,1216.731934 896.232239,1215.354126 
z"/>
<path fill="#910A26" opacity="1.000000" stroke="none" 
	d="
M1182.805542,1249.005127 
	C1173.420654,1252.086304 1164.551392,1252.189453 1155.751343,1248.212769 
	C1148.661743,1245.009155 1147.626587,1237.931519 1146.293823,1231.859009 
	C1144.570923,1224.008911 1144.950195,1215.851562 1146.940430,1207.759033 
	C1149.184814,1198.633301 1153.733398,1192.455322 1163.524536,1191.448853 
	C1172.669922,1190.508545 1182.183838,1189.615479 1188.820679,1197.621704 
	C1191.680786,1201.072144 1193.642334,1205.913208 1194.333618,1210.382202 
	C1195.800171,1219.865601 1195.923828,1229.534424 1192.771729,1238.837280 
	C1191.167969,1243.570679 1187.906494,1247.007690 1182.805542,1249.005127 
M1154.949097,1223.386353 
	C1155.356201,1227.020508 1155.488281,1230.712524 1156.236206,1234.275146 
	C1157.300415,1239.342896 1160.564087,1242.528687 1165.837158,1243.001953 
	C1169.127075,1243.297119 1172.492432,1243.309326 1175.776367,1242.977661 
	C1180.553467,1242.495117 1184.435425,1239.774414 1184.765503,1235.017212 
	C1185.393066,1225.973877 1185.753784,1216.787964 1184.838257,1207.802368 
	C1184.150269,1201.048584 1178.793335,1198.312256 1170.541138,1198.397217 
	C1162.018433,1198.484985 1157.405396,1201.474731 1156.099731,1208.531616 
	C1155.258057,1213.081421 1155.288330,1217.792358 1154.949097,1223.386353 
z"/>
<path fill="#910B27" opacity="1.000000" stroke="none" 
	d="
M600.474426,1238.363770 
	C597.055786,1225.751709 596.593201,1213.507812 601.401489,1201.612305 
	C604.101257,1194.933228 610.057129,1191.737671 616.934021,1191.351685 
	C622.469727,1191.040894 628.188477,1191.463257 633.625366,1192.557373 
	C640.420288,1193.924683 644.141357,1199.162964 645.861755,1205.544434 
	C648.620911,1215.778809 648.669678,1226.176392 645.861572,1236.388062 
	C644.157959,1242.583008 640.932739,1247.908203 633.885498,1249.449219 
	C624.423157,1251.518311 614.839722,1253.383789 606.375732,1246.831421 
	C603.869385,1244.891113 602.501648,1241.480103 600.474426,1238.363770 
M607.202820,1217.798950 
	C607.343140,1221.277466 607.234558,1224.787476 607.668030,1228.229004 
	C609.309021,1241.256836 613.968506,1244.802979 626.942017,1243.182129 
	C633.523743,1242.359863 637.147339,1239.545166 637.732239,1232.861572 
	C638.406677,1225.154053 638.424377,1217.303467 637.788696,1209.592407 
	C637.212646,1202.605103 633.402283,1199.598877 626.324585,1198.687256 
	C614.532471,1197.168457 609.382996,1201.111572 607.723450,1212.941162 
	C607.539185,1214.254761 607.400513,1215.574707 607.202820,1217.798950 
z"/>
<path fill="#910A26" opacity="1.000000" stroke="none" 
	d="
M986.213379,1182.472656 
	C991.514221,1171.826294 1000.251648,1168.306152 1011.179138,1168.993896 
	C1018.698364,1169.467163 1026.212036,1170.029297 1033.806396,1170.557251 
	C1033.806396,1173.715210 1033.806396,1175.982056 1033.806396,1178.639893 
	C1029.604248,1178.375732 1025.622192,1177.967407 1021.635315,1177.911743 
	C1015.651062,1177.828003 1009.583374,1177.415527 1003.702454,1178.232300 
	C999.008118,1178.884033 996.232178,1182.738281 994.928162,1187.370117 
	C990.942932,1201.524902 990.738159,1215.842896 994.115601,1230.041382 
	C996.335815,1239.374390 1001.723938,1243.096924 1011.294312,1242.923462 
	C1018.706482,1242.789062 1026.108643,1242.104248 1033.755615,1241.649780 
	C1033.755615,1243.544434 1033.755615,1245.827271 1033.755615,1249.532715 
	C1025.175171,1249.981934 1016.370789,1250.998169 1007.597900,1250.775513 
	C993.579712,1250.419922 986.682678,1242.713013 984.260071,1229.663574 
	C981.324707,1213.851807 981.889648,1198.303833 986.213379,1182.472656 
z"/>
<path fill="#910B27" opacity="1.000000" stroke="none" 
	d="
M674.489746,1250.864014 
	C668.072083,1249.454956 663.824524,1246.225586 663.014465,1239.732910 
	C662.334900,1234.285767 661.481689,1228.824951 661.339417,1223.353882 
	C661.071960,1213.071411 661.262268,1202.777100 661.262268,1192.254395 
	C664.301331,1192.254395 666.888916,1192.254395 670.029053,1192.254395 
	C670.029053,1200.247559 669.906128,1208.194580 670.068054,1216.135620 
	C670.196838,1222.452393 670.447144,1228.784058 671.064270,1235.067871 
	C671.602356,1240.546875 674.278259,1242.718506 679.904663,1243.036499 
	C681.729553,1243.139771 683.574646,1243.145508 685.395996,1243.006226 
	C695.359131,1242.244873 697.996216,1239.438232 697.996216,1229.721191 
	C697.996216,1217.398926 697.996277,1205.076782 697.996277,1192.384644 
	C700.855774,1192.384644 703.560852,1192.384644 706.555481,1192.384644 
	C706.555481,1211.323730 706.555481,1230.253052 706.555481,1249.568848 
	C703.120911,1249.612427 699.149902,1252.108276 697.572571,1248.266602 
	C689.680786,1249.154419 682.305420,1249.984131 674.489746,1250.864014 
z"/>
<path fill="#910B27" opacity="1.000000" stroke="none" 
	d="
M1442.328369,1242.981934 
	C1448.163696,1242.532593 1453.642456,1242.593262 1458.861206,1241.458618 
	C1462.577271,1240.650757 1464.739014,1237.238281 1464.236572,1233.229004 
	C1463.723511,1229.133545 1461.027466,1226.684570 1456.943115,1225.780518 
	C1450.594727,1224.375122 1444.136841,1223.297241 1437.954956,1221.351562 
	C1431.464355,1219.308594 1428.911377,1214.602783 1428.983521,1206.970947 
	C1429.046265,1200.336914 1432.330322,1194.653564 1438.409424,1193.218262 
	C1444.450684,1191.791870 1450.811768,1191.323364 1457.043823,1191.235107 
	C1461.574951,1191.170898 1466.124390,1192.409058 1470.823975,1193.089600 
	C1470.823975,1195.395386 1470.823975,1197.486694 1470.823975,1200.312866 
	C1466.419800,1199.877197 1462.244141,1199.170654 1458.061646,1199.128052 
	C1453.329102,1199.079590 1448.370605,1198.888916 1443.941895,1200.208740 
	C1441.509155,1200.933594 1438.936890,1204.388184 1438.281006,1207.066040 
	C1437.466675,1210.391113 1439.615234,1213.225586 1443.554688,1214.120361 
	C1450.118896,1215.611328 1456.698730,1217.109131 1463.140625,1219.041870 
	C1470.650269,1221.294922 1472.959595,1224.745605 1473.016724,1232.480713 
	C1473.085205,1241.746826 1470.293823,1246.458252 1463.245728,1249.009521 
	C1454.609741,1252.135620 1445.830688,1251.312256 1437.016968,1250.046265 
	C1435.082642,1249.768433 1433.104126,1249.799438 1430.740112,1249.665161 
	C1430.439697,1247.101318 1430.138306,1244.528809 1429.765015,1241.342041 
	C1434.201172,1241.943115 1438.030884,1242.461914 1442.328369,1242.981934 
z"/>
<path fill="#900925" opacity="1.000000" stroke="none" 
	d="
M1218.170410,1219.004639 
	C1218.170410,1229.471069 1218.170410,1239.438843 1218.170410,1249.692383 
	C1215.301514,1249.692383 1212.732056,1249.692383 1209.862549,1249.692383 
	C1209.862549,1230.567261 1209.862549,1211.528564 1209.862549,1192.067993 
	C1213.080811,1192.812012 1217.164185,1189.670044 1218.711304,1195.109741 
	C1226.381104,1192.155518 1233.909546,1189.950317 1242.521240,1191.713135 
	C1251.221069,1193.493896 1254.406860,1200.158447 1254.745972,1207.524780 
	C1255.386230,1221.428345 1254.930908,1235.382446 1254.930908,1249.650146 
	C1252.821899,1249.650146 1250.244019,1249.650146 1247.010254,1249.650146 
	C1247.010254,1240.704956 1247.183594,1231.604614 1246.943237,1222.515259 
	C1246.805908,1217.323486 1246.502319,1212.034058 1245.356812,1206.997314 
	C1243.966064,1200.883057 1240.588135,1198.644043 1234.335449,1198.855469 
	C1230.922607,1198.970825 1227.503662,1199.622314 1224.139648,1200.293701 
	C1219.734131,1201.172852 1217.288452,1203.457642 1218.075684,1208.527466 
	C1218.580688,1211.780029 1218.170410,1215.174805 1218.170410,1219.004639 
z"/>
<path fill="#930E2A" opacity="1.000000" stroke="none" 
	d="
M918.190186,1199.630615 
	C916.258484,1199.555054 914.799438,1199.482300 913.192871,1199.402100 
	C913.192871,1196.955322 913.192871,1194.822632 913.192871,1192.264038 
	C915.605774,1192.125977 918.029785,1191.987183 920.996826,1191.817383 
	C920.996826,1186.158813 920.996826,1180.437744 920.996826,1174.469238 
	C924.106934,1174.469238 926.684753,1174.469238 929.673218,1174.469238 
	C929.673218,1180.085327 929.673218,1185.671997 929.673218,1191.864258 
	C935.918945,1191.864258 941.793518,1191.864258 947.779480,1191.864258 
	C947.779480,1194.711670 947.779480,1196.951660 947.779480,1199.499512 
	C941.917542,1199.499512 936.291443,1199.499512 929.970337,1199.499512 
	C929.970337,1208.710327 929.898743,1217.630127 930.004211,1226.547852 
	C930.049011,1230.332153 930.496094,1234.110352 930.704224,1237.894531 
	C930.931335,1242.024170 933.667175,1243.109497 937.139282,1243.188232 
	C940.780457,1243.270874 944.424988,1243.206665 948.619141,1243.206665 
	C948.766296,1245.281494 948.913025,1247.350464 949.158081,1250.806519 
	C942.460571,1250.806519 936.034668,1251.421265 929.835938,1250.503052 
	C927.367310,1250.137207 924.274109,1246.732422 923.450134,1244.091797 
	C921.927490,1239.211792 921.483521,1233.889771 921.286865,1228.725342 
	C920.964111,1220.247559 921.298950,1211.745972 921.083557,1203.261353 
	C921.052368,1202.032349 919.507446,1200.841675 918.190186,1199.630615 
z"/>
<path fill="#910B27" opacity="1.000000" stroke="none" 
	d="
M1334.017090,1245.219482 
	C1333.558228,1247.031128 1333.169556,1249.559204 1332.628052,1249.592407 
	C1324.751709,1250.074951 1316.763428,1251.063477 1308.988159,1250.218384 
	C1301.000000,1249.350220 1297.617920,1242.999023 1295.820312,1235.501099 
	C1293.488159,1225.773071 1293.296265,1216.207275 1295.858521,1206.542603 
	C1298.624878,1196.107788 1302.919312,1191.946045 1313.553223,1191.236328 
	C1319.453003,1190.842651 1325.513550,1191.393799 1331.344238,1192.416504 
	C1332.871948,1192.684326 1333.812378,1196.301147 1335.022583,1198.379883 
	C1334.586182,1198.879639 1334.149902,1199.379272 1333.713501,1199.879028 
	C1331.225952,1199.615845 1328.728516,1199.065430 1326.252808,1199.149902 
	C1321.194580,1199.322266 1316.004761,1199.231445 1311.137573,1200.383179 
	C1306.457886,1201.490601 1304.460693,1206.119385 1304.303101,1210.396240 
	C1304.011963,1218.302246 1304.272827,1226.291016 1305.132202,1234.154785 
	C1305.704102,1239.389282 1310.213501,1242.789551 1315.538696,1242.925903 
	C1320.665283,1243.056885 1325.807739,1242.503906 1330.939331,1242.566284 
	C1331.973877,1242.578735 1332.991089,1244.002441 1334.017090,1245.219482 
z"/>
<path fill="#910B27" opacity="1.000000" stroke="none" 
	d="
M1348.116821,1217.000000 
	C1348.116821,1200.216797 1348.116821,1183.933594 1348.116821,1167.317139 
	C1351.093018,1167.317139 1353.797974,1167.317139 1356.741577,1167.317139 
	C1356.741577,1194.760742 1356.741577,1222.128540 1356.741577,1249.741211 
	C1353.975952,1249.741211 1351.380127,1249.741211 1348.116821,1249.741211 
	C1348.116821,1239.002197 1348.116821,1228.251099 1348.116821,1217.000000 
z"/>
<path fill="#910C28" opacity="1.000000" stroke="none" 
	d="
M749.600464,1191.423340 
	C751.004456,1191.827637 752.717712,1192.229492 752.877808,1192.968018 
	C753.290344,1194.871704 753.015869,1196.924194 753.015869,1199.019043 
	C747.225952,1201.188232 741.517212,1203.379028 735.768250,1205.458740 
	C732.893677,1206.498657 731.923828,1208.270386 731.974060,1211.414795 
	C732.175537,1224.035522 732.057373,1236.661255 732.057373,1249.636230 
	C729.182861,1249.636230 726.488464,1249.636230 723.533875,1249.636230 
	C723.533875,1230.506470 723.533875,1211.476685 723.533875,1192.229370 
	C726.378784,1192.229370 728.964050,1192.229370 731.832642,1192.229370 
	C731.924438,1194.326904 732.009521,1196.271118 732.102539,1198.396484 
	C737.837891,1196.108276 743.519958,1193.841187 749.600464,1191.423340 
z"/>
<path fill="#8E0320" opacity="1.000000" stroke="none" 
	d="
M1109.567383,1208.001465 
	C1109.567261,1202.531128 1109.567261,1197.560303 1109.567261,1192.311523 
	C1112.463379,1192.311523 1115.035034,1192.311523 1117.856812,1192.311523 
	C1117.959839,1194.201782 1118.056519,1195.973877 1118.182861,1198.291260 
	C1125.010620,1195.593262 1131.519409,1193.021240 1138.650146,1190.203491 
	C1138.650146,1193.816528 1138.650146,1196.518555 1138.650146,1199.358032 
	C1133.305420,1201.260498 1127.840332,1203.214844 1122.368530,1205.150024 
	C1119.182983,1206.276367 1117.970703,1208.255249 1118.046997,1211.855957 
	C1118.311401,1224.327026 1118.148926,1236.807251 1118.148926,1249.626221 
	C1115.414429,1249.626221 1112.851562,1249.626221 1109.567383,1249.626221 
	C1109.567383,1235.963135 1109.567383,1222.232056 1109.567383,1208.001465 
z"/>
<path fill="#8D0320" opacity="1.000000" stroke="none" 
	d="
M1271.791382,1214.000000 
	C1271.791382,1206.530884 1271.791382,1199.561890 1271.791382,1192.313721 
	C1274.671997,1192.313721 1277.238403,1192.313721 1280.333740,1192.313721 
	C1280.333740,1201.875122 1280.333618,1211.314819 1280.333618,1220.754395 
	C1280.333618,1230.244019 1280.333740,1239.733765 1280.333740,1249.595459 
	C1277.604980,1249.595459 1275.049683,1249.595459 1271.791382,1249.595459 
	C1271.791382,1237.993164 1271.791382,1226.246582 1271.791382,1214.000000 
z"/>
<path fill="#8E0320" opacity="1.000000" stroke="none" 
	d="
M1278.930664,1168.968750 
	C1279.827148,1172.134888 1280.236206,1175.262939 1280.686646,1178.707520 
	C1277.411987,1178.707520 1274.856079,1178.707520 1272.042725,1178.707520 
	C1272.042725,1175.530396 1272.042725,1172.483154 1272.042725,1168.930664 
	C1274.247192,1168.930664 1276.345337,1168.930664 1278.930664,1168.968750 
z"/>
<path fill="#FFE9E8" opacity="1.000000" stroke="none" 
	d="
M978.958557,955.787964 
	C978.659424,955.596313 978.354065,955.109985 978.104553,954.314331 
	C978.424377,954.501038 978.688354,954.997131 978.958557,955.787964 
z"/>
<path fill="#FFE9E8" opacity="1.000000" stroke="none" 
	d="
M1057.829590,1194.035645 
	C1057.487549,1194.245728 1056.820679,1194.416992 1056.175537,1194.284424 
	C1056.633057,1193.986084 1057.068848,1193.991455 1057.829590,1194.035645 
z"/>
<path fill="#FBF5F6" opacity="1.000000" stroke="none" 
	d="
M1056.389648,1202.882080 
	C1056.299194,1202.687012 1056.385010,1202.384277 1056.734131,1202.081299 
	C1056.924316,1202.356201 1056.780518,1202.587280 1056.389648,1202.882080 
z"/>
<path fill="#FEFCFC" opacity="1.000000" stroke="none" 
	d="
M1036.212646,683.052979 
	C1043.706787,684.076965 1050.787109,684.851196 1057.718140,686.326172 
	C1059.579590,686.722290 1062.448364,689.463745 1062.261475,690.752686 
	C1061.979492,692.699097 1059.753418,695.131531 1057.774658,695.938599 
	C1045.703247,700.861877 1033.434448,700.761292 1021.371765,695.860718 
	C1019.493835,695.097839 1016.824890,692.507263 1017.056519,691.216858 
	C1017.398499,689.311890 1019.731567,686.994690 1021.718567,686.310608 
	C1026.230835,684.757141 1031.049072,684.092285 1036.212646,683.052979 
z"/>
<path fill="#FEFCFC" opacity="1.000000" stroke="none" 
	d="
M1095.078857,358.805664 
	C1080.976685,356.804443 1072.850586,348.394043 1072.743652,336.117035 
	C1072.638062,323.986481 1081.552490,314.550079 1094.063721,313.548889 
	C1105.717651,312.616302 1116.131470,321.187286 1117.795654,333.081116 
	C1119.370117,344.333740 1111.550903,355.626770 1100.416992,358.108856 
	C1098.805664,358.468079 1097.140137,358.584412 1095.078857,358.805664 
z"/>
<path fill="#FFFEFE" opacity="1.000000" stroke="none" 
	d="
M555.790283,954.913330 
	C566.054932,940.485657 592.022156,941.758789 600.781921,950.130371 
	C611.179993,960.067444 611.463135,972.321716 607.690369,984.785522 
	C604.442261,995.516113 596.240479,1000.952332 585.026062,1002.229187 
	C568.663513,1004.092163 555.963684,997.909180 552.359192,985.062073 
	C549.502502,974.879822 549.632629,964.630676 555.790283,954.913330 
z"/>
<path fill="#FFFEFE" opacity="1.000000" stroke="none" 
	d="
M585.526611,1099.800049 
	C575.023743,1100.255493 565.061401,1100.215576 556.086731,1094.616821 
	C547.439514,1089.222168 544.754639,1079.273071 551.219116,1071.535400 
	C556.018372,1065.790894 562.622803,1061.538818 568.529907,1056.754028 
	C569.309082,1056.122803 570.792847,1055.911743 571.829285,1056.116943 
	C583.062988,1058.340698 594.346436,1060.381470 605.470764,1063.073364 
	C620.868713,1066.799561 619.507507,1082.659668 611.099792,1089.726318 
	C603.750427,1095.903320 595.156860,1098.427734 585.526611,1099.800049 
z"/>
<path fill="#FFFEFE" opacity="1.000000" stroke="none" 
	d="
M1324.822144,978.844971 
	C1312.731812,978.848389 1301.121704,978.848389 1289.494873,978.848389 
	C1291.723145,955.099731 1311.896606,939.633911 1333.519043,944.907471 
	C1344.011475,947.466492 1350.946045,955.894897 1351.963135,967.613159 
	C1352.245361,970.864746 1352.006104,974.161499 1352.006104,978.841553 
	C1342.791626,978.841553 1334.046997,978.841553 1324.822144,978.844971 
z"/>
<path fill="#FFFEFE" opacity="1.000000" stroke="none" 
	d="
M712.220459,944.939941 
	C732.724731,940.830627 748.108887,949.986816 753.765686,970.133423 
	C758.422058,986.716614 759.006775,1003.690674 754.881226,1020.461548 
	C748.774963,1045.283813 719.908569,1055.430420 699.996704,1040.012695 
	C693.690674,1035.130005 690.146240,1028.278076 688.122986,1020.799316 
	C683.616333,1004.141235 683.094177,987.216431 687.200745,970.468689 
	C690.378967,957.507202 698.089783,948.158997 712.220459,944.939941 
z"/>
<path fill="#FBF5F6" opacity="1.000000" stroke="none" 
	d="
M1387.125732,1217.669189 
	C1384.836060,1217.669067 1383.029541,1217.669067 1380.826660,1217.669067 
	C1380.492188,1210.945435 1381.175659,1205.036743 1386.653076,1200.826782 
	C1391.011353,1197.477051 1399.591309,1197.086548 1404.209229,1200.143677 
	C1410.405518,1204.245728 1410.139404,1210.714722 1410.272949,1217.669189 
	C1402.497925,1217.669189 1395.053345,1217.669189 1387.125732,1217.669189 
z"/>
<path fill="#FBF5F6" opacity="1.000000" stroke="none" 
	d="
M896.225952,1215.811157 
	C895.458984,1216.731934 894.702576,1217.591187 893.937256,1217.599121 
	C885.001343,1217.693359 876.064087,1217.659546 866.649658,1217.659546 
	C866.489197,1211.448975 866.930847,1205.733765 871.694519,1201.577148 
	C876.533081,1197.355225 882.362671,1197.373169 888.156433,1199.183716 
	C893.021973,1200.703979 894.884949,1204.804321 895.745056,1209.407104 
	C896.108459,1211.351929 896.081726,1213.369629 896.225952,1215.811157 
z"/>
<path fill="#FEFCFC" opacity="1.000000" stroke="none" 
	d="
M1154.938477,1222.908691 
	C1155.288330,1217.792358 1155.258057,1213.081421 1156.099731,1208.531616 
	C1157.405396,1201.474731 1162.018433,1198.484985 1170.541138,1198.397217 
	C1178.793335,1198.312256 1184.150269,1201.048584 1184.838257,1207.802368 
	C1185.753784,1216.787964 1185.393066,1225.973877 1184.765503,1235.017212 
	C1184.435425,1239.774414 1180.553467,1242.495117 1175.776367,1242.977661 
	C1172.492432,1243.309326 1169.127075,1243.297119 1165.837158,1243.001953 
	C1160.564087,1242.528687 1157.300415,1239.342896 1156.236206,1234.275146 
	C1155.488281,1230.712524 1155.356201,1227.020508 1154.938477,1222.908691 
z"/>
<path fill="#FEFCFC" opacity="1.000000" stroke="none" 
	d="
M607.221741,1217.345337 
	C607.400513,1215.574707 607.539185,1214.254761 607.723450,1212.941162 
	C609.382996,1201.111572 614.532471,1197.168457 626.324585,1198.687256 
	C633.402283,1199.598877 637.212646,1202.605103 637.788696,1209.592407 
	C638.424377,1217.303467 638.406677,1225.154053 637.732239,1232.861572 
	C637.147339,1239.545166 633.523743,1242.359863 626.942017,1243.182129 
	C613.968506,1244.802979 609.309021,1241.256836 607.668030,1228.229004 
	C607.234558,1224.787476 607.343140,1221.277466 607.221741,1217.345337 
z"/>
</svg>